<svg width="68" height="68" viewBox="0 0 68 68" fill="none" xmlns="http://www.w3.org/2000/svg">
<g clip-path="url(#clip0_25_299)">
<path d="M58.3823 52.8247C57.23 52.8256 56.1033 52.4846 55.1448 51.8451C54.1863 51.2055 53.4389 50.296 52.9974 49.2316C52.5558 48.1672 52.4399 46.9958 52.6642 45.8655C52.8884 44.7353 53.4429 43.6969 54.2574 42.8818C55.072 42.0667 56.1099 41.5114 57.24 41.2863C58.3702 41.0612 59.5417 41.1763 60.6063 41.6171C61.671 42.0579 62.5811 42.8045 63.2214 43.7626C63.8616 44.7206 64.2034 45.8471 64.2034 46.9994C64.2027 48.5434 63.5893 50.024 62.4979 51.1162C61.4065 52.2084 59.9263 52.8229 58.3823 52.8247ZM58.3823 43.2991C57.6503 43.2982 56.9344 43.5145 56.3254 43.9206C55.7163 44.3267 55.2414 44.9043 54.9606 45.5804C54.6799 46.2565 54.606 47.0006 54.7483 47.7187C54.8906 48.4368 55.2427 49.0965 55.76 49.6144C56.2774 50.1324 56.9367 50.4852 57.6546 50.6283C58.3725 50.7715 59.1167 50.6984 59.7931 50.4185C60.4695 50.1385 61.0477 49.6643 61.4545 49.0556C61.8613 48.447 62.0784 47.7314 62.0784 46.9994C62.078 46.0189 61.6886 45.0785 60.9957 44.3848C60.3027 43.691 59.3629 43.3006 58.3823 43.2991Z" fill="#BA9E76"/>
<path d="M27.6845 52.8247C26.5321 52.8259 25.4053 52.4852 24.4466 51.8457C23.4879 51.2063 22.7403 50.2969 22.2986 49.2326C21.8568 48.1683 21.7406 46.9968 21.9648 45.8664C22.1889 44.736 22.7433 43.6975 23.5577 42.8823C24.3722 42.067 25.4101 41.5117 26.5403 41.2864C27.6705 41.0612 28.842 41.1762 29.9068 41.617C30.9716 42.0577 31.8817 42.8043 32.522 43.7624C33.1624 44.7205 33.5042 45.847 33.5042 46.9994C33.5031 48.5431 32.8897 50.0232 31.7987 51.1153C30.7078 52.2073 29.2282 52.8221 27.6845 52.8247ZM27.6845 43.2991C26.9524 43.2979 26.2364 43.514 25.6272 43.9199C25.0179 44.3259 24.5428 44.9034 24.2618 45.5794C23.9809 46.2555 23.9068 46.9997 24.0489 47.7178C24.1911 48.436 24.543 49.0959 25.0603 49.6139C25.5776 50.132 26.2369 50.485 26.9549 50.6282C27.6728 50.7715 28.4171 50.6985 29.0936 50.4186C29.7701 50.1387 30.3483 49.6644 30.7552 49.0558C31.162 48.4471 31.3792 47.7315 31.3792 46.9994C31.3784 46.0192 30.9891 45.0793 30.2966 44.3857C29.604 43.6921 28.6647 43.3013 27.6845 43.2991Z" fill="#BA9E76"/>
<path d="M66.0462 48.0618H63.1406C62.8588 48.0618 62.5886 47.9499 62.3893 47.7506C62.1901 47.5514 62.0781 47.2811 62.0781 46.9993C62.0781 46.7175 62.1901 46.4473 62.3893 46.248C62.5886 46.0488 62.8588 45.9368 63.1406 45.9368H65.7459V40.3027C65.7452 39.541 65.5502 38.7921 65.1792 38.1267L59.4276 27.8148C59.3784 27.7268 59.3067 27.6535 59.2198 27.6025C59.1329 27.5514 59.0339 27.5245 58.9331 27.5244H51.0947V45.9411H53.6249C53.9067 45.9411 54.1769 46.053 54.3762 46.2523C54.5755 46.4515 54.6874 46.7218 54.6874 47.0036C54.6874 47.2854 54.5755 47.5556 54.3762 47.7549C54.1769 47.9541 53.9067 48.0661 53.6249 48.0661H50.0322C49.7504 48.0661 49.4802 47.9541 49.2809 47.7549C49.0817 47.5556 48.9697 47.2854 48.9697 47.0036V26.4619C48.9697 26.1801 49.0817 25.9099 49.2809 25.7106C49.4802 25.5114 49.7504 25.3994 50.0322 25.3994H58.9331C59.4125 25.3992 59.8832 25.527 60.2966 25.7695C60.71 26.0121 61.0512 26.3607 61.2848 26.7792L67.0351 37.0926C67.5817 38.0742 67.8689 39.1791 67.8695 40.3027V46.2386C67.8687 46.7219 67.6764 47.1852 67.3346 47.527C66.9929 47.8687 66.5295 48.0611 66.0462 48.0618Z" fill="#BA9E76"/>
<path d="M22.9265 48.0618H12.7393C12.4575 48.0618 12.1872 47.9499 11.988 47.7506C11.7887 47.5514 11.6768 47.2811 11.6768 46.9993V38.828C11.6768 38.5462 11.7887 38.276 11.988 38.0767C12.1872 37.8774 12.4575 37.7655 12.7393 37.7655C13.0211 37.7655 13.2913 37.8774 13.4906 38.0767C13.6898 38.276 13.8018 38.5462 13.8018 38.828V45.9368H22.9265C23.2083 45.9368 23.4786 46.0488 23.6778 46.248C23.8771 46.4473 23.989 46.7175 23.989 46.9993C23.989 47.2811 23.8771 47.5514 23.6778 47.7506C23.4786 47.9499 23.2083 48.0618 22.9265 48.0618Z" fill="#BA9E76"/>
<path d="M12.7393 35.0583C12.4575 35.0583 12.1872 34.9463 11.988 34.7471C11.7887 34.5478 11.6768 34.2776 11.6768 33.9958V26.8615C11.6768 26.5797 11.7887 26.3094 11.988 26.1101C12.1872 25.9109 12.4575 25.799 12.7393 25.799C13.0211 25.799 13.2913 25.9109 13.4906 26.1101C13.6898 26.3094 13.8018 26.5797 13.8018 26.8615V34C13.8006 34.2811 13.6882 34.5502 13.4891 34.7486C13.2899 34.9469 13.0203 35.0583 12.7393 35.0583Z" fill="#BA9E76"/>
<path d="M50.033 48.0618H32.4423C32.1605 48.0618 31.8902 47.9499 31.691 47.7506C31.4917 47.5513 31.3798 47.2811 31.3798 46.9993C31.3798 46.7175 31.4917 46.4473 31.691 46.248C31.8902 46.0487 32.1605 45.9368 32.4423 45.9368H48.9705V18.1404H13.8018V22.5165C13.8018 22.7983 13.6898 23.0685 13.4906 23.2678C13.2913 23.467 13.0211 23.579 12.7393 23.579C12.4575 23.579 12.1872 23.467 11.988 23.2678C11.7887 23.0685 11.6768 22.7983 11.6768 22.5165V17.9449C11.6775 17.4331 11.8812 16.9426 12.2432 16.5808C12.6052 16.2191 13.0959 16.0158 13.6077 16.0154H49.166C49.6775 16.0161 50.1679 16.2197 50.5295 16.5813C50.8912 16.943 51.0948 17.4334 51.0955 17.9449V46.9993C51.0955 47.2811 50.9836 47.5513 50.7843 47.7506C50.585 47.9499 50.3148 48.0618 50.033 48.0618Z" fill="#BA9E76"/>
<path d="M16.9394 39.8905H3.4541C3.17231 39.8905 2.90206 39.7786 2.7028 39.5793C2.50354 39.38 2.3916 39.1098 2.3916 38.828C2.3916 38.5462 2.50354 38.276 2.7028 38.0767C2.90206 37.8774 3.17231 37.7655 3.4541 37.7655H16.9394C17.2211 37.7655 17.4914 37.8774 17.6907 38.0767C17.8899 38.276 18.0019 38.5462 18.0019 38.828C18.0019 39.1098 17.8899 39.38 17.6907 39.5793C17.4914 39.7786 17.2211 39.8905 16.9394 39.8905Z" fill="#BA9E76"/>
<path d="M8.28184 29.4482H0.933594C0.651801 29.4482 0.38155 29.3363 0.182293 29.137C-0.0169646 28.9378 -0.128906 28.6675 -0.128906 28.3857C-0.128906 28.1039 -0.0169646 27.8337 0.182293 27.6344C0.38155 27.4352 0.651801 27.3232 0.933594 27.3232H8.28184C8.56364 27.3232 8.83389 27.4352 9.03314 27.6344C9.2324 27.8337 9.34434 28.1039 9.34434 28.3857C9.34434 28.6675 9.2324 28.9378 9.03314 29.137C8.83389 29.3363 8.56364 29.4482 8.28184 29.4482Z" fill="#BA9E76"/>
<path d="M20.0648 23.579H7.09375C6.81196 23.579 6.54171 23.467 6.34245 23.2678C6.14319 23.0685 6.03125 22.7983 6.03125 22.5165C6.03125 22.2347 6.14319 21.9644 6.34245 21.7652C6.54171 21.5659 6.81196 21.454 7.09375 21.454H20.0648C20.3465 21.454 20.6168 21.5659 20.8161 21.7652C21.0153 21.9644 21.1273 22.2347 21.1273 22.5165C21.1273 22.7983 21.0153 23.0685 20.8161 23.2678C20.6168 23.467 20.3465 23.579 20.0648 23.579Z" fill="#BA9E76"/>
</g>
<defs>
<clipPath id="clip0_25_299">
<rect width="68" height="68" fill="white"/>
</clipPath>
</defs>
</svg>
