<svg width="118" height="107" viewBox="0 0 118 107" fill="none" xmlns="http://www.w3.org/2000/svg">
<rect width="87" height="90" transform="translate(31)" fill="#BA9E76"/>
<path d="M85.7215 52.7508C71.011 33.9799 71.6411 34.4485 70.8516 34.3764L47.8261 31.2911C42.0245 30.5126 38.0771 31.5218 36.0635 31.702C35.3899 31.7957 34.9119 32.4085 35.006 33.0861C35.1002 33.7564 35.7158 34.2322 36.3967 34.1385C38.4392 33.9511 42.0969 32.9996 47.5002 33.7276L63.3117 35.8469C62.1311 36.0848 44.6827 39.6242 43.4948 39.8693L23.678 35.8469L30.5299 34.9314C31.2035 34.8377 31.6815 34.225 31.5873 33.5474C31.4932 32.877 30.8703 32.4013 30.1967 32.495L16.1308 34.3764H16.1091C16.1091 34.3764 16.0728 34.3836 16.0511 34.3908C16.0366 34.3908 16.0294 34.3908 16.0149 34.3908C16.0076 34.3908 15.9932 34.3908 15.9859 34.3908C15.9714 34.3908 15.9569 34.398 15.9425 34.4052C15.9207 34.4052 15.899 34.4196 15.8773 34.4268C15.87 34.4268 15.8628 34.4268 15.8483 34.434C15.8483 34.434 15.8411 34.434 15.8338 34.434C15.8193 34.434 15.8121 34.4413 15.7976 34.4485C15.7759 34.4557 15.7541 34.4701 15.7324 34.4773C15.7252 34.4773 15.7107 34.4845 15.7034 34.4917C15.6962 34.4917 15.6817 34.4989 15.6745 34.5061C15.6672 34.5061 15.6527 34.5205 15.6455 34.5205C15.1095 34.8305 15.3703 34.8521 1.2609 52.7364C0.96394 53.1113 0.920482 53.6231 1.13053 54.0412C1.6303 55.0215 0.304827 53.0824 27.5457 89.0744C27.9586 89.6151 28.7336 89.7232 29.2768 89.3123C29.82 88.9014 29.9287 88.1301 29.5158 87.5895L5.59946 56.0451L24.9383 62.1075C25.4018 63.3257 39.5619 100.5 39.8299 101.192L33.0142 92.2029C32.6014 91.6623 31.8264 91.5542 31.2831 91.9651C30.7399 92.3759 30.6313 93.1473 31.0441 93.6879C38.1785 103.095 38.91 104.075 38.968 104.126C39.8661 105.135 41.1191 105.777 42.307 105.978C42.4808 106.007 44.5523 106.007 44.7261 105.978C46.2327 105.69 47.5002 104.839 48.1014 104.054L72.1988 72.2642C72.6117 71.7236 72.503 70.9523 71.9598 70.5414C71.4166 70.1305 70.6416 70.2386 70.2287 70.7793L47.1743 101.192C47.9131 99.2601 61.5227 63.5275 62.0659 62.1075L81.4047 56.0451L73.7054 66.2019C73.2925 66.7425 73.4012 67.5138 73.9444 67.9247C74.4876 68.3356 75.2626 68.2275 75.6755 67.6868C86.0185 54.0339 85.4608 54.8629 85.8664 54.0628C86.0837 53.6375 86.033 53.1257 85.736 52.7508H85.7215ZM43.4948 42.9761L58.3864 59.8872H28.6032L43.4948 42.9761ZM4.17983 53.0248L15.8918 38.0743L23.8301 59.1808L4.17983 53.0176V53.0248ZM18.2095 37.2382C20.6504 37.7355 38.1785 41.2893 41.1626 41.8948L26.3072 58.7627L18.2095 37.2382ZM43.6252 103.535H43.35L27.6544 62.3381H59.3135L43.618 103.535H43.6252ZM60.6752 58.7555L45.8198 41.8876C47.7972 41.484 65.7308 37.8509 68.7729 37.2309L60.6752 58.7555ZM63.1523 59.1808L71.0907 38.0743L82.8026 53.0248L63.1523 59.188V59.1808Z" fill="#342F2C" stroke="#342F2C" stroke-width="0.5"/>
</svg>
