<svg width="57" height="51" viewBox="0 0 57 51" fill="none" xmlns="http://www.w3.org/2000/svg">
<path d="M36.5231 18.6058L44.392 10.7368H57V6.46912C57 3.29727 54.4195 0.716797 51.2477 0.716797H5.75232C2.58047 0.716797 0 3.29727 0 6.46912V10.7368H23.4902V37.9054C23.4902 42.8888 19.436 46.9431 14.4525 46.9431H9.97656V50.283H47.12V46.9431H42.6323C37.6336 46.9431 33.5667 42.8888 33.5667 37.9054V15.6495L36.5231 18.6058ZM51.0721 4.05664H51.2477C52.5779 4.05664 53.6602 5.13886 53.6602 6.46912V7.39693H47.7318L51.0721 4.05664ZM3.33984 7.39693V6.46912C3.33984 5.13886 4.42206 4.05664 5.75232 4.05664H21.9739L25.3142 7.39693H3.33984ZM34.1657 46.9431H22.9001C25.3168 44.6827 26.8301 41.4677 26.8301 37.9054V10.7368H28.6541L30.2268 12.3095V37.9054C30.2269 41.4677 31.7435 44.6827 34.1657 46.9431ZM26.6972 4.05664H46.3489L36.5231 13.8826L26.6972 4.05664Z" fill="#342F2C"/>
</svg>
