<svg width="249" height="96" viewBox="0 0 249 96" fill="none" xmlns="http://www.w3.org/2000/svg">
<g clip-path="url(#clip0_5_68)">
<path d="M0 92.97L0.96 89.02C1.94 90.84 3.93 92.38 6.19 92.38C8.15 92.38 9.48 91.05 9.48 89.34C9.48 87.42 7.75 86.56 6.96 86.16L4.44 84.87C2.73 84.03 0.42 82.63 0.42 79.38C0.42 76.13 2.87 73.68 6.59 73.68C8.95 73.68 10.84 74.64 11.94 75.53L11.01 79.41C10.01 77.96 8.25 76.72 6.45 76.72C4.74 76.72 3.72 77.79 3.72 79.17C3.72 80.64 4.91 81.37 5.89 81.86L8.46 83.15C9.91 83.87 12.78 85.42 12.78 89.13C12.78 92.84 10.07 95.46 6.08 95.46C3.53 95.46 1.29 94.34 0.01 92.96L0 92.97Z" fill="black"/>
<path d="M20.76 74.07H24.26V95.09H20.76V74.07Z" fill="black"/>
<path d="M33.69 74.07H37.19V92.01H43.99V95.09H33.69V74.07Z" fill="black"/>
<path d="M51.74 74.07H55.17V95.09H51.74V74.07ZM55.22 82.13L61.71 74.07H65.68L59.18 82.08L67.59 95.09H63.5L55.21 82.12L55.22 82.13Z" fill="black"/>
<path d="M74.22 74.07H85.01V77.08H77.58V80.93H83.37V83.87H77.58V92H85.01V95.08H74.22V74.06V74.07Z" fill="black"/>
<path d="M96.2 81.62V95.1H92.98V73.37L106.65 87.53V74.07H109.87V95.8L96.2 81.62Z" fill="black"/>
<path d="M138.78 74.07H142.35L146.51 84.86C146.84 85.72 147.09 86.47 147.42 87.69C147.75 86.48 148.05 85.73 148.38 84.86L152.8 73.37L157.24 84.86C157.54 85.68 157.89 86.43 158.2 87.69C158.53 86.43 158.81 85.68 159.13 84.86L163.26 74.07H166.62L158.26 95.82L153.66 83.81C153.36 82.99 153.03 82.22 152.73 80.98C152.4 82.22 152.1 82.97 151.77 83.78L147.17 95.81L138.78 74.06V74.07Z" fill="black"/>
<path d="M171.49 84.58C171.49 78.53 176.44 73.65 182.54 73.65C188.64 73.65 193.59 78.53 193.59 84.58C193.59 90.63 188.66 95.51 182.54 95.51C176.42 95.51 171.49 90.63 171.49 84.58ZM190.02 84.58C190.02 80.35 186.75 76.94 182.54 76.94C178.33 76.94 175.06 80.35 175.06 84.58C175.06 88.81 178.33 92.22 182.54 92.22C186.75 92.22 190.02 88.81 190.02 84.58Z" fill="black"/>
<path d="M200.28 84.58C200.28 78.53 205.23 73.65 211.33 73.65C217.43 73.65 222.38 78.53 222.38 84.58C222.38 90.63 217.45 95.51 211.33 95.51C205.21 95.51 200.28 90.63 200.28 84.58ZM218.81 84.58C218.81 80.35 215.54 76.94 211.33 76.94C207.12 76.94 203.85 80.35 203.85 84.58C203.85 88.81 207.12 92.22 211.33 92.22C215.54 92.22 218.81 88.81 218.81 84.58Z" fill="black"/>
<path d="M230.33 74.07H237.36C244.51 74.07 248.6 79.21 248.6 84.58C248.6 89.95 244.51 95.09 237.36 95.09H230.33V74.07ZM237.04 92.01C242.62 92.01 245.03 88.2 245.03 84.58C245.03 80.96 242.62 77.15 237.04 77.15H233.7V92.01H237.04Z" fill="black"/>
<path d="M145.51 37.89C145.52 39.99 145.06 42.01 144.36 43.98C143.39 46.72 142.23 49.37 140.7 51.84C138.7 55.07 135.9 57.38 132.4 58.83C129.63 59.97 126.78 60.85 123.82 61.36C119.85 62.04 116.2 61.3 112.8 59.12C109.3 56.88 106.48 54.02 104.54 50.32C102.94 47.27 102.61 44.08 103.41 40.77C104.41 36.63 106.13 32.77 108.46 29.22C111.03 25.31 114.71 22.93 119.19 21.69C122.53 20.77 125.87 20.65 129.23 21.52C131.27 22.05 133.15 22.94 135 23.93C137.24 25.13 139.35 26.51 141.19 28.3C143 30.06 144.43 32.09 145.07 34.56C145.35 35.64 145.45 36.77 145.63 37.88C145.59 37.88 145.55 37.89 145.51 37.9V37.89ZM121 61.21C121.65 61.16 122.31 61.13 122.96 61.06C125.35 60.79 127.65 60.09 129.92 59.33C131.95 58.65 133.91 57.81 135.67 56.57C137.7 55.15 139.37 53.37 140.59 51.22C142.55 47.77 144.2 44.19 144.9 40.24C145.26 38.24 145.2 36.26 144.58 34.31C143.79 31.83 142.3 29.81 140.37 28.1C137.97 25.95 135.21 24.38 132.3 23.04C129.75 21.87 127.08 21.28 124.26 21.33C122.46 21.36 120.71 21.66 118.99 22.16C115.14 23.27 111.87 25.28 109.46 28.53C106.76 32.18 104.99 36.29 103.85 40.66C103.11 43.51 103.19 46.34 104.42 49.08C106.14 52.92 108.84 55.92 112.29 58.28C114.91 60.08 117.73 61.3 120.99 61.21H121Z" fill="#A0A09F"/>
<path d="M142.3 40.87C142.29 43.55 142.03 46 141.37 48.4C140.53 51.48 138.73 53.85 136.14 55.68C133.51 57.54 130.62 58.79 127.44 59.34C124.25 59.89 121.2 59.44 118.31 58.02C114.44 56.12 111.18 53.49 108.93 49.76C106.87 46.36 105.9 42.67 106.28 38.69C106.53 36.03 107.51 33.6 108.99 31.38C111.11 28.18 113.76 25.55 117.25 23.87C120.82 22.15 124.55 21.62 128.42 22.64C130.59 23.21 132.5 24.31 134.25 25.71C136.42 27.45 138.37 29.39 139.88 31.74C141.7 34.58 142.47 37.7 142.31 40.87H142.3ZM141.91 41.65C141.91 41.38 141.91 41.1 141.91 40.83C142.01 37.31 141.09 34.1 139.03 31.23C137.26 28.76 135.07 26.72 132.56 25.02C130.73 23.78 128.73 22.93 126.52 22.66C123.51 22.29 120.62 22.77 117.86 24.03C114.4 25.6 111.74 28.11 109.6 31.19C108.14 33.28 107.12 35.57 106.76 38.11C106.22 41.94 107.05 45.52 108.89 48.87C111.15 52.97 114.6 55.8 118.79 57.78C120.86 58.76 123.05 59.25 125.36 59.13C129.23 58.93 132.69 57.56 135.86 55.37C138.63 53.45 140.4 50.87 141.17 47.58C141.63 45.62 141.83 43.64 141.92 41.64L141.91 41.65Z" fill="#A0A09F"/>
<path d="M124.64 24.38C126.81 24.38 128.61 24.59 130.36 25.12C132.56 25.79 134.3 27.16 135.78 28.87C137.82 31.23 139.56 33.79 140.65 36.73C142.87 42.71 141.1 49.02 136.07 52.95C133.48 54.97 130.62 56.59 127.58 57.87C124.42 59.2 121.36 58.97 118.41 57.22C114.85 55.11 112.2 52.17 110.53 48.39C109.65 46.41 109.46 44.28 109.66 42.15C110.03 38.26 110.95 34.51 112.64 30.98C114.23 27.65 116.95 25.73 120.49 24.89C121.97 24.54 123.46 24.36 124.64 24.39V24.38ZM124.49 24.74C123.62 24.86 122.23 24.96 120.87 25.23C117.34 25.95 114.6 27.81 113.03 31.13C111.25 34.91 110.23 38.9 110.03 43.08C109.95 44.91 110.2 46.72 110.98 48.4C112.72 52.13 115.36 55.05 118.97 57.06C121.55 58.49 124.23 58.71 126.99 57.64C130.19 56.41 133.13 54.69 135.82 52.6C140.65 48.84 142.36 42.81 140.33 37.04C139.42 34.45 137.9 32.19 136.23 30.04C134.93 28.36 133.42 26.91 131.47 25.98C129.42 25.01 127.21 24.86 124.48 24.72L124.49 24.74Z" fill="#A0A09F"/>
<path d="M124.71 55.61C122.68 55.55 120.69 55.32 118.73 54.79C115.8 53.99 113.67 52.24 112.43 49.45C110.47 45.02 110.17 40.54 112.03 36C113.51 32.38 116.19 30.02 119.77 28.6C121.08 28.08 122.44 27.76 123.84 27.59C126.13 27.32 128.13 28 129.87 29.45C132.27 31.46 134.45 33.7 136.46 36.1C138.6 38.64 139.1 41.58 138.49 44.78C138.15 46.53 137.61 48.2 136.71 49.75C135.14 52.45 132.73 54.03 129.8 54.88C128.97 55.12 128.11 55.28 127.25 55.41C126.41 55.53 125.55 55.55 124.7 55.62L124.71 55.61ZM124.15 55.15C125.96 55.22 127.75 55.05 129.5 54.55C132.31 53.75 134.67 52.32 136.23 49.77C137.5 47.7 138.1 45.42 138.3 43.01C138.47 40.96 138.02 39.09 136.89 37.4C136.37 36.63 135.82 35.87 135.18 35.2C133.45 33.42 131.71 31.64 129.87 29.97C128.22 28.46 126.23 27.66 123.94 27.99C122.8 28.16 121.65 28.39 120.56 28.76C117.4 29.84 114.79 31.67 113.15 34.67C110.62 39.3 110.66 44.04 112.61 48.84C113.76 51.68 115.79 53.55 118.77 54.37C120.53 54.86 122.33 55.09 124.15 55.16V55.15Z" fill="#A0A09F"/>
<path d="M124.41 52.41C122.03 52.39 119.59 51.9 117.42 50.52C114.33 48.55 112.85 45.71 112.98 42.04C113.21 35.72 118.89 30.42 125.19 30.72C128.65 30.89 131.46 32.5 133.7 35.09C135.48 37.15 136.55 39.54 136.59 42.29C136.65 46.42 134.58 49.24 130.97 51.02C128.96 52.01 126.81 52.4 124.42 52.41H124.41ZM123.79 52C127.12 52 129.45 51.42 131.53 50.26C135.25 48.19 136.95 44.21 135.87 40.09C135.09 37.11 133.37 34.78 130.84 33.08C128.02 31.18 124.92 30.48 121.65 31.57C116.77 33.2 113.94 36.66 113.42 41.79C113.08 45.12 114.35 47.86 117.13 49.81C119.38 51.39 121.94 51.97 123.8 52H123.79Z" fill="#A0A09F"/>
<path d="M117.49 41.79C117.69 40 118.12 38.31 118.79 36.67C119.62 34.63 121.2 33.56 123.34 33.23C124.62 33.03 125.9 33.08 127.15 33.42C127.64 33.55 128.15 33.76 128.55 34.06C130.61 35.63 132.03 37.66 132.48 40.24C132.89 42.56 132.18 44.61 130.4 46.18C129.03 47.39 127.44 48.28 125.73 48.93C124.31 49.46 122.93 49.26 121.65 48.48C119.95 47.44 118.64 46.03 117.95 44.15C117.68 43.41 117.63 42.58 117.49 41.79ZM124.79 33.54C124.62 33.54 124.45 33.54 124.29 33.54C124.14 33.54 123.98 33.55 123.83 33.57C121.54 33.8 119.85 34.87 119.06 37.11C118.71 38.1 118.38 39.11 118.21 40.14C118.05 41.07 117.95 42.07 118.09 43C118.46 45.37 119.99 46.97 121.95 48.18C123.11 48.89 124.35 49.02 125.64 48.53C127.16 47.95 128.56 47.14 129.83 46.13C131.27 45 132.04 43.49 132.16 41.65C132.29 39.58 131.36 37.92 130.23 36.3C128.9 34.41 127.14 33.39 124.79 33.54Z" fill="#A0A09F"/>
<path d="M124.84 36.32C124.84 36.32 124.9 36.32 124.93 36.32C127.98 36.22 129.95 38.23 129.75 41.29C129.72 41.73 129.6 42.21 129.39 42.6C128.5 44.21 127.37 45.59 125.43 45.98C124.15 46.24 122.99 45.94 121.98 45.16C121.34 44.67 120.76 44.1 120.19 43.54C119.07 42.43 118.95 41.12 119.53 39.7C120.35 37.68 121.79 36.49 124.03 36.38C124.3 36.37 124.58 36.34 124.85 36.32H124.84ZM125.03 36.71C125.03 36.71 125.03 36.74 125.03 36.76C124.8 36.76 124.57 36.76 124.34 36.76C122.29 36.79 120.83 37.73 120 39.61C119.48 40.78 119.32 41.96 120.27 42.99C120.95 43.72 121.69 44.43 122.5 45C123.67 45.83 124.98 45.85 126.29 45.27C127.29 44.83 127.95 44.01 128.59 43.16C129.32 42.18 129.56 41.11 129.23 39.92C128.81 38.42 128.15 37.14 126.45 36.82C125.99 36.73 125.51 36.73 125.04 36.7L125.03 36.71Z" fill="#A0A09F"/>
<path d="M124.25 38.2099C125.93 38.2099 127.3 39.58 127.3 41.27C127.3 42.92 125.92 44.29 124.26 44.29C122.6 44.29 121.22 42.93 121.21 41.27C121.2 39.59 122.57 38.21 124.25 38.2V38.2099ZM124.23 38.63C122.8 38.63 121.62 39.8199 121.61 41.2599C121.61 42.6999 122.8 43.8899 124.27 43.8899C125.7 43.8899 126.88 42.6999 126.88 41.2599C126.88 39.7899 125.7 38.62 124.23 38.63Z" fill="#A0A09F"/>
<path d="M120.24 0.299974C119.02 2.31997 120.09 4.86997 121.97 6.05997C124.59 7.71997 127.87 6.86997 130.76 6.91997C132.4 6.94997 134.12 7.28997 135.25 8.57997C136.24 9.69997 136.68 11.31 136.41 12.78C135.72 16.48 131.3 17.31 128.18 17.25C125.06 17.19 121.81 16.83 118.59 17.36C115.37 17.89 112.52 18.95 110.04 20.84C105.37 24.4 101.68 30.02 100.43 35.77C98.07 46.68 104.02 58.94 114.31 63.47C125.63 68.45 139.22 63.43 145.16 52.73C148.24 47.18 149.58 40.33 148.04 34.1C146.35 27.29 140.94 22.66 135.25 19.04C134.57 18.61 133.94 19.69 134.62 20.12C139.69 23.35 144.69 27.42 146.54 33.38C148.22 38.78 147.42 44.82 145.16 49.94C140.23 61.12 127.14 67.23 115.55 62.65C105.19 58.55 99.09 46.17 101.8 35.42C103.2 29.87 107.05 24.07 111.96 21.04C114.59 19.42 117.69 18.61 120.75 18.36C124.01 18.09 127.28 18.79 130.53 18.43C133.13 18.14 135.92 16.96 137.15 14.5C138.24 12.32 137.76 9.50997 136.14 7.71997C134.09 5.44997 130.89 5.63997 128.11 5.79997C126.38 5.89997 124.45 6.02997 122.88 5.16997C121.43 4.37997 120.38 2.49997 121.32 0.959974C121.74 0.269974 120.66 -0.360026 120.24 0.329974V0.299974Z" fill="black"/>
<path d="M124 94.3899C123.98 92.7199 123.95 91.0499 123.93 89.3899C123.66 66.7599 123.38 34.7999 123.11 12.1699C123.11 11.9899 123.1 11.7999 123.11 11.6199C123.18 10.8899 123.66 10.4199 124.33 10.4399C124.99 10.4499 125.48 10.9399 125.49 11.6799C125.49 12.9099 125.46 14.1499 125.44 15.3799C125.06 36.7499 124.69 67.4499 124.31 88.8199C124.28 90.6799 124.24 92.5399 124.2 94.3999C124.14 94.3999 124.07 94.3999 124.01 94.3999L124 94.3899ZM124.09 20.8999C124.21 20.8999 124.33 20.9199 124.44 20.9199C124.54 20.5099 124.71 20.0999 124.72 19.6899C124.79 17.2099 124.83 14.7199 124.86 12.2399C124.86 12.0299 124.84 11.8099 124.75 11.6299C124.67 11.4699 124.46 11.2399 124.34 11.2599C124.16 11.2899 123.96 11.4799 123.85 11.6499C123.75 11.8199 123.74 12.0499 123.74 12.2599C123.76 14.7199 123.78 17.1799 123.83 19.6399C123.83 20.0599 123.99 20.4799 124.08 20.8999H124.09Z" fill="black"/>
</g>
<defs>
<clipPath id="clip0_5_68">
<rect width="248.6" height="95.82" fill="white"/>
</clipPath>
</defs>
</svg>
