<svg width="53" height="53" viewBox="0 0 53 53" fill="none" xmlns="http://www.w3.org/2000/svg">
<g clip-path="url(#clip0_25_107)">
<path d="M46.7895 21.8416C46.2515 21.8416 45.7295 21.9109 45.2314 22.0401L46.3129 10.0269C46.3135 10.0216 46.3139 10.0162 46.3143 10.0109C46.6712 5.66613 43.5711 1.76898 39.2567 1.13846C35.7026 0.619023 30.5866 0 26.3972 0C22.2292 0 17.2067 0.612812 13.7273 1.12697C9.42266 1.76287 6.32961 5.65899 6.68591 9.99681C6.68633 10.0023 6.68684 10.0076 6.68736 10.013L7.77013 22.0401C7.27191 21.9109 6.74988 21.8416 6.21181 21.8416C2.7871 21.8416 0.000976562 24.6278 0.000976562 28.0524C0.000976562 36.7322 5.47871 42.4098 7.97644 44.5473L6.29369 50.3527C5.97538 51.4509 6.60765 52.5992 7.70585 52.9175C7.89839 52.9733 8.09228 52.9999 8.28316 52.9999C9.18105 52.9999 10.0081 52.4111 10.2707 51.5054L11.908 45.8569H41.0936L42.7309 51.5054C42.9935 52.4112 43.8204 52.9999 44.7184 52.9999C44.9092 52.9999 45.1033 52.9733 45.2957 52.9175C46.3939 52.5992 47.0261 51.4509 46.7079 50.3527L44.6375 43.2102C44.3698 42.2868 43.5149 41.6953 42.597 41.719C42.5798 41.7186 42.563 41.7164 42.5456 41.7164H11.052C10.3706 41.1654 9.05921 40.0058 7.76765 38.3116C5.36153 35.1555 4.1415 31.7037 4.1415 28.0523C4.1415 26.9107 5.07024 25.982 6.21181 25.982C7.35338 25.982 8.28212 26.9107 8.28212 28.0523C8.28212 28.1341 8.28699 28.2158 8.29662 28.297L8.43833 29.4875C8.47829 30.796 9.07402 32.0169 10.0866 32.8546C11.1363 33.7233 12.5061 34.0752 13.8452 33.8203C18.7945 32.8778 23.0525 32.4 26.5008 32.4C29.9491 32.4 34.207 32.8778 39.1563 33.8203C40.4953 34.0757 41.8651 33.7234 42.9149 32.8547C43.9275 32.0169 44.5233 30.796 44.5632 29.4876L44.7049 28.2971C44.7146 28.2159 44.7194 28.1342 44.7194 28.0524C44.7194 26.9109 45.6482 25.9821 46.7897 25.9821C47.9313 25.9821 48.86 26.9109 48.86 28.0524C48.86 30.5887 48.2585 33.0595 47.0721 35.3963C46.5545 36.416 46.9615 37.662 47.981 38.1796C49.0008 38.6975 50.2466 38.2902 50.7642 37.2708C52.2482 34.3476 53.0007 31.2462 53.0007 28.0524C53.0005 24.6278 50.2142 21.8416 46.7895 21.8416ZM42.1883 9.66484L40.433 29.1611C40.4325 29.1672 40.4328 29.1732 40.4323 29.1793C40.4278 29.235 40.4247 29.2908 40.4247 29.3467C40.4247 29.5073 40.3433 29.6084 40.2751 29.6648C40.2062 29.7219 40.0904 29.7838 39.9309 29.7529C34.7268 28.7619 30.2083 28.2595 26.5007 28.2595C22.793 28.2595 18.2746 28.7619 13.0704 29.753C12.9107 29.7832 12.7951 29.7218 12.7263 29.6648C12.658 29.6084 12.5767 29.5073 12.5767 29.3467C12.5767 29.2908 12.5736 29.235 12.569 29.1793C12.5685 29.1732 12.5689 29.1672 12.5683 29.1611L10.8119 9.65086C10.6377 7.4847 12.1829 5.54047 14.3325 5.22298C17.6747 4.72932 22.4807 4.14062 26.3972 4.14062C30.3379 4.14062 35.2397 4.73605 38.658 5.23561C40.8134 5.55051 42.3627 7.49536 42.1883 9.66484Z" fill="#342F2C"/>
</g>
<defs>
<clipPath id="clip0_25_107">
<rect width="53" height="53" fill="white"/>
</clipPath>
</defs>
</svg>
