<svg width="1052" height="832" viewBox="0 0 1052 832" fill="none" xmlns="http://www.w3.org/2000/svg">
<g opacity="0.05">
<path d="M358.654 592.489C354.902 585.131 350.848 577.733 346.915 570.557C336.829 552.021 326.26 532.838 319.725 512.24C299.877 449.577 320.996 376.2 371.079 333.771C392.904 315.295 419.085 302.763 442.201 291.706C474.797 276.121 504.347 263.406 536.116 265.953C551.324 267.166 565.928 272.017 580.047 276.626C591.136 280.606 602.512 283.735 614.075 285.985C637.312 289.907 661.436 286.49 684.672 283.196C705.488 280.244 727.031 277.131 748.27 279.153C802.146 284.166 853.4 320.268 904.916 389.582C912.016 399.143 919.035 409.068 925.974 418.69C956.593 461.604 988.261 505.973 1033.04 533.383C1048.13 542.621 1064.71 549.878 1080.74 556.913C1091.7 561.703 1102.93 566.656 1113.86 572.235C1126.97 578.986 1144.97 590.063 1149.69 608.317C1152.73 620.061 1149.57 632.391 1146.08 642.903C1139.46 662.773 1130.26 682.239 1121.37 701.058C1105.23 735.422 1088.39 770.857 1087.8 808.738C1087.26 844.739 1101.8 881.366 1127.96 910.757H1119.89C1094.94 880.942 1081.19 844.516 1081.73 808.637C1082.34 769.442 1099.38 733.36 1115.88 698.471C1124.69 679.813 1133.81 660.509 1140.31 640.982C1143.51 631.32 1146.46 620.061 1143.82 609.833C1139.78 593.944 1123.16 583.837 1111.08 577.632C1100.41 572.134 1089.17 567.222 1078.3 562.471C1062.17 555.356 1045.3 548.018 1029.89 538.558C984.045 510.501 952.014 465.626 920.971 422.207C914.134 412.625 907.054 402.721 899.974 393.2C849.547 325.362 799.706 290.109 747.645 285.177C727.071 283.276 705.912 286.268 685.439 289.219C661.658 292.575 637.029 296.052 612.824 291.989C600.961 289.684 589.289 286.481 577.909 282.407C564.133 277.879 549.872 273.169 535.41 272.017C505.154 269.592 476.35 281.983 444.642 297.204C421.869 308.099 396.051 320.45 374.831 338.42C326.542 379.313 306.251 450.041 325.332 510.42C331.686 530.452 342.034 549.373 352.058 567.666C356.093 574.862 360.127 582.321 363.878 589.76C392.52 646.605 408.11 709.152 409.504 772.818C410.654 819.539 404.23 866.138 390.484 910.798H384.13C416.625 807.08 407.85 688.99 358.654 592.489Z" fill="#342F2C"/>
<path d="M892.128 -79.119C895.516 -74.1666 899.026 -69.0121 902.213 -63.9181C918.718 -37.5113 929.194 -7.77468 932.892 23.1635C934.445 36.3632 934.909 50.0683 935.172 63.3286C936.019 94.7411 936.805 124.435 951.853 149.966C977.671 193.769 1034.07 204.098 1065.39 206.383C1082.52 207.616 1100.11 207.474 1117.13 207.333C1144.5 207.11 1172.82 206.868 1200.23 212.386C1206.87 213.72 1213.53 215.398 1219.96 217.035C1230.22 219.874 1240.65 222.049 1251.19 223.544C1272.99 226.132 1295.32 222.796 1318.17 218.814C1337.8 215.398 1356.94 211.78 1375.15 204.968C1410.55 191.748 1440.61 166.986 1469.65 143.052C1483.61 131.571 1497.89 119.827 1512.88 109.214V116.633C1499.3 126.477 1486.27 137.211 1473.51 147.722C1444.06 171.979 1413.6 197.064 1377.25 210.648C1358.57 217.642 1339.13 221.321 1319.2 224.798C1301.67 227.85 1284.43 230.518 1267.32 230.518C1261.69 230.535 1256.06 230.217 1250.46 229.568C1239.66 228.045 1228.98 225.824 1218.47 222.918C1212.11 221.301 1205.54 219.643 1199.04 218.329C1172.26 212.932 1144.26 213.175 1117.17 213.397C1100.05 213.538 1082.32 213.68 1064.95 212.427C1032.45 210.062 973.859 199.227 946.649 153.038C930.815 126.154 929.947 94.2963 929.12 63.4903C928.757 50.3715 928.394 36.808 926.881 23.871C923.286 -6.16887 913.113 -35.0419 897.089 -60.6839C893.943 -65.697 890.473 -70.7908 887.125 -75.6826C881.74 -83.566 876.273 -91.5506 871.695 -99.9394H878.674C882.788 -92.8038 887.549 -85.9109 892.128 -79.119Z" fill="#342F2C"/>
<path d="M372.29 -99.6766C403.636 -59.476 422.673 -11.0263 427.093 39.7996C427.779 48.0873 428.122 56.941 425.863 65.4915C421.829 80.6318 410.634 92.2952 399.076 102.665C394.134 107.072 388.991 111.458 384.029 115.683C367.348 129.832 350.082 144.629 338.02 162.983C332.729 171.439 327.966 180.215 323.759 189.261C316.518 203.997 309.034 219.239 297.013 231.044C279.464 248.266 255.683 254.593 238.841 256.857C232.422 257.724 225.953 258.163 219.477 258.171C180.91 258.171 144.845 242.626 122.174 215.459C93.1681 180.671 91.1108 127.771 117.454 95.0241C125.522 85.099 135.607 77.0943 145.451 69.3524C158.299 59.2454 170.442 49.6842 178.087 36.2217C194.788 6.87109 183.976 -30.7875 172.56 -63.7766L160.054 -99.8989H166.448L178.268 -65.7778C190.128 -31.5152 201.283 7.67963 183.351 39.2336C175.101 53.7068 161.93 64.0765 149.182 74.1229C139.621 81.6424 129.717 89.445 122.174 98.8243C97.5653 129.408 99.6025 178.932 126.813 211.557C151.522 241.211 195.171 256.634 238.034 250.853C253.969 248.711 276.358 242.768 292.777 226.718C304.052 215.641 310.93 201.531 318.333 186.573C322.643 177.314 327.527 168.335 332.957 159.688C345.503 140.607 363.092 125.608 380.116 111.175C385.058 106.95 390.201 102.604 395.042 98.2381C405.914 88.5152 416.443 77.6401 420.013 64.0563C421.691 56.2885 422.046 48.2923 421.062 40.406C416.734 -9.24151 398.147 -56.5696 367.549 -95.8561L364.363 -99.8989H372.128C372.128 -99.8989 372.249 -99.7574 372.29 -99.6766Z" fill="#342F2C"/>
<path d="M145.935 608.883C186.457 615.897 223.289 651.332 242.532 679.51C266.172 714.197 278.698 754.989 287.815 790.303C290.659 801.319 293.18 813.913 287.109 824.282C282.51 832.085 273.978 836.411 267.967 838.937C255.995 843.921 243.151 846.457 230.187 846.396C202.675 846.396 174.779 835.178 160.679 810.011C155.596 800.976 152.772 790.949 150.049 781.267C148.819 776.941 147.568 772.474 146.136 768.189C140.12 750.403 130.506 734.053 117.897 720.16C115.094 717.088 112.048 714.096 109.103 711.044C99.3606 701.24 89.2753 691.093 84.7368 677.63C79.2706 661.459 83.3248 643.125 95.5685 628.753C108.74 613.431 128.003 605.81 145.935 608.883ZM90.5056 675.75C94.5397 687.879 103.717 697.076 113.399 706.819C116.405 709.831 119.451 712.883 122.375 716.138C135.547 730.648 145.587 747.729 151.865 766.309C153.357 770.736 154.628 775.284 155.899 779.67C158.642 789.454 161.244 798.691 165.984 807.1C185.187 841.323 232.668 847.387 265.627 833.379C274.038 829.801 279.061 826.061 281.905 821.25C286.827 812.882 284.527 801.703 281.905 791.879C272.909 757.051 260.605 716.886 237.529 682.987C218.972 655.759 183.573 621.577 144.906 614.906C129.092 612.177 111.947 618.949 100.188 632.796C89.3358 645.49 85.705 661.56 90.5056 675.75Z" fill="#342F2C"/>
<path d="M1400.47 483.657C1426.57 532.544 1434.67 589.074 1423.36 643.347C1418.24 667.341 1409.77 682.765 1396.68 691.861C1388.35 697.662 1377.82 701.018 1364.4 702.13C1361.52 702.372 1358.69 702.493 1355.95 702.493C1345.22 702.72 1334.57 700.465 1324.85 695.904C1298.63 683.027 1288.54 654.505 1278.8 626.954C1275.17 616.048 1270.94 605.352 1266.13 594.915C1254.92 571.931 1236.92 552.627 1219.54 533.97C1210.64 524.429 1201.38 514.544 1193.17 504.215C1162.19 465.566 1152.55 423.844 1167.4 392.614C1179.5 367.245 1197.95 354.046 1222.42 353.419C1288.52 351.741 1378.52 443.027 1400.47 483.657ZM1222.62 359.483C1200.62 360.049 1183.88 372.076 1172.9 395.221C1152.43 438.317 1186.88 486.649 1197.93 500.334C1206 510.441 1215.18 520.285 1224.02 529.745C1241.71 548.746 1259.98 568.374 1271.6 592.166C1276.52 602.805 1280.84 613.71 1284.55 624.831C1294.33 652.484 1303.59 678.58 1327.55 690.385C1337.54 695.297 1349.74 697.197 1363.86 696.005C1376.14 694.994 1385.72 691.962 1393.13 686.807C1404.89 678.722 1412.59 664.37 1417.33 641.973C1428.35 589.074 1420.45 533.978 1395.02 486.326C1374.53 448.384 1286.93 359.483 1224.4 359.483H1222.62Z" fill="#342F2C"/>
<path d="M933.659 -56.8634C940.86 -45.0181 948.303 -32.7685 953.507 -19.6294C961.696 1.04946 964.197 23.588 966.618 45.3786C967.445 52.7769 968.292 60.438 969.341 67.9172C974.646 105.151 986.223 130.863 1004.74 146.549C1022.89 161.932 1046.92 167.35 1069.97 171.594C1143.65 185.105 1218.61 190.245 1293.44 186.917C1313.03 186.027 1335.64 184.491 1356.35 177.214C1377.07 169.937 1395.18 157.445 1413.56 144.144C1447.41 119.665 1480.71 93.7304 1512.9 66.8661V69.5141C1481.07 96.0146 1448.17 121.605 1414.75 145.781C1396.23 159.163 1377.88 171.797 1357.02 179.114C1336.16 186.431 1313.25 188.049 1293.54 188.918C1278.75 189.592 1263.96 189.922 1249.17 189.908C1188.92 189.915 1128.79 184.448 1069.53 173.575C1047.34 169.533 1021.91 163.812 1003.37 148.106C984.448 132.076 972.649 105.94 967.263 68.2002C966.214 60.7008 965.347 53.0195 964.52 45.601C962.12 23.9317 959.639 1.53459 951.55 -18.8815C946.427 -31.8588 939.024 -44.0276 931.864 -55.8123C926.922 -63.8979 921.778 -72.3271 917.462 -80.9787C914.396 -87.0728 911.813 -93.399 909.736 -99.8989H911.753C913.801 -93.7185 916.302 -87.6984 919.237 -81.8883C923.654 -73.3176 928.737 -64.949 933.659 -56.8634Z" fill="#342F2C"/>
<path d="M991.871 -78.0881C999.061 -67.9993 1005.47 -57.3765 1011.05 -46.3118C1019.12 -29.2108 1021.8 -10.3512 1024.43 7.88181C1025.39 14.5928 1026.44 21.5262 1027.65 28.2574C1033.6 60.2561 1044.07 81.3999 1060.61 94.8219C1076.75 107.9 1098.61 112.732 1117.84 116.229C1182.32 127.963 1247.92 132.397 1313.39 129.448C1332.92 128.579 1353.73 126.942 1372.81 120.979C1382.72 117.794 1392.33 113.736 1401.52 108.85C1410.47 104.242 1419.21 99.1275 1427.74 94.1751L1436.57 89.0205C1450.43 80.935 1464.01 72.9909 1477.04 65.3298C1490.07 57.6687 1500.31 51.4631 1510.18 45.2776L1512.84 43.62V46.0053L1511.1 47.0968C1501.22 53.2823 1490.93 59.488 1477.92 67.1693C1464.91 74.8506 1451.32 82.7744 1437.44 90.86L1428.61 96.0146C1420.13 100.987 1411.38 106.122 1402.38 110.751C1393.08 115.636 1383.37 119.695 1373.36 122.879C1353.95 128.943 1333.02 130.56 1313.45 131.429C1300.35 132.022 1287.26 132.312 1274.16 132.299C1221.6 132.294 1169.15 127.559 1117.43 118.149C1097.97 114.591 1075.8 109.679 1059.3 96.2975C1042.38 82.5723 1031.69 61.0445 1025.64 28.5405C1024.37 21.789 1023.36 14.8152 1022.39 8.08396C1019.79 -10.0075 1017.08 -28.7055 1009.2 -45.5234C1003.66 -56.4973 997.293 -67.0323 990.157 -77.037C985.175 -84.4353 980.071 -92.0559 975.573 -99.9798H977.893C982.25 -92.3995 987.111 -85.1427 991.871 -78.0881Z" fill="#342F2C"/>
<path d="M1050.27 -99.6159C1056.96 -91.1567 1063.08 -82.2634 1068.6 -72.9942C1076.31 -59.2891 1079.29 -43.9265 1082.2 -29.0895C1083.32 -23.2477 1084.52 -17.2239 1085.95 -11.4225C1089.98 5.09225 1097.71 28.7021 1116.49 43.1551C1130.6 53.9291 1149.28 57.9921 1165.7 60.9636C1221 70.8357 1277.21 74.5103 1333.32 71.9195C1350.38 71.1514 1370.37 69.696 1389.23 64.683C1398.56 62.1221 1407.7 58.9415 1416.6 55.1622C1422.66 52.6556 1428.71 50.0077 1434.5 47.4405L1441.74 44.2467C1457.87 37.2122 1473.63 30.9661 1488.35 25.6296L1495.25 23.1433C1501.3 21.0006 1506.95 18.9388 1512.88 16.6546V18.8176C1507.19 21.0007 1501.68 22.9816 1495.94 25.0434L1489.04 27.5298C1474.35 32.846 1458.78 39.0921 1442.64 46.1064L1435.4 49.3001C1429.57 51.8673 1423.56 54.5154 1417.47 57.0421C1408.49 60.8485 1399.26 64.056 1389.86 66.6437C1370.82 71.6972 1350.69 73.1728 1333.52 73.9207C1322.09 74.4463 1310.66 74.7023 1299.23 74.6888C1254.36 74.712 1209.58 70.7343 1165.42 62.803C1148.78 59.7912 1129.82 55.6473 1115.34 44.6105C1096.05 29.8745 1088.27 5.81999 1084.07 -10.998C1082.62 -16.8398 1081.45 -22.904 1080.3 -28.7661C1077.44 -43.4414 1074.47 -58.6423 1066.93 -72.0644C1061.46 -81.2549 1055.4 -90.0738 1048.77 -98.4637L1047.62 -99.9596H1050.16L1050.27 -99.6159Z" fill="#342F2C"/>
<path d="M1126.13 -99.6766C1133.29 -89.2058 1136.62 -77.2593 1139.84 -65.7171C1141.19 -60.8658 1142.59 -55.873 1144.24 -51.1227C1149.08 -37.1549 1156.67 -19.69 1172.34 -8.67342C1184.44 -0.163345 1199.97 3.13152 1213.57 5.47634C1259.67 13.6117 1306.53 16.6283 1353.29 14.4715C1370.91 13.9222 1388.45 11.8937 1405.73 8.40733C1414.89 6.38593 1423.64 3.91985 1431.75 1.47396L1436.57 -0.00161743C1443.27 -2.02301 1449.58 -4.04446 1455.92 -5.68179C1470.3 -9.74768 1485 -12.5478 1499.87 -14.0503C1503.34 -14.3737 1506.65 -14.5759 1509.95 -14.7982L1512.92 -14.9801V-12.9588L1510.08 -12.7768C1506.81 -12.5747 1503.52 -12.3524 1499.99 -12.0492C1485.25 -10.521 1470.66 -7.74165 1456.38 -3.74121C1450.09 -2.00281 1443.77 -0.082489 1437.1 1.9389L1432.28 3.39431C1424.21 5.86041 1415.31 8.40735 1406.06 10.3883C1388.67 13.8833 1371.02 15.9118 1353.29 16.4525C1343.49 16.8972 1333.72 17.1128 1323.98 17.0994C1286.79 17.1449 1249.67 13.9048 1213.04 7.41686C1199.23 4.95076 1183.45 1.59528 1171.01 -7.13713C1154.67 -18.5984 1146.8 -37.4581 1142.16 -50.5567C1140.49 -55.3676 1139.08 -60.4009 1137.73 -65.2724C1134.54 -76.6529 1131.25 -88.4376 1124.29 -98.6254L1123.3 -100H1125.78C1125.91 -99.9105 1126.03 -99.8014 1126.13 -99.6766Z" fill="#342F2C"/>
<path d="M1202.49 -90.8633C1207.72 -80.7563 1215.34 -68.3248 1228.19 -60.5424C1238.28 -54.3367 1250.66 -51.81 1261.43 -49.9301C1298.34 -43.5852 1335.83 -41.2673 1373.24 -43.0169C1389.63 -43.6979 1405.97 -45.2906 1422.19 -47.7874C1428.12 -48.7172 1434.01 -49.8088 1439.7 -50.8599L1446.92 -52.1738C1456.08 -53.8112 1463.44 -54.8825 1470.1 -55.5495C1486.23 -57.0656 1500.05 -56.4187 1511.45 -53.5281L1512.9 -53.1238V-51.1024L1510.88 -51.628C1499.87 -54.3367 1485.79 -55.0037 1470.2 -53.5079C1463.6 -52.8611 1456.3 -51.7898 1447.18 -50.1525L1439.98 -48.8385C1434.27 -47.8076 1428.38 -46.7161 1422.43 -45.766C1406.14 -43.2606 1389.73 -41.6679 1373.26 -40.9955C1365.11 -40.6047 1356.99 -40.416 1348.89 -40.4295C1319.44 -40.3835 1290.03 -42.8859 1261.01 -47.9087C1250.06 -49.829 1237.49 -52.3962 1227.06 -58.804C1213.79 -66.8896 1205.96 -79.7658 1200.62 -90.0143C1198.94 -93.2485 1197.45 -96.6445 1195.98 -99.9798H1198.2C1199.61 -96.8466 1200.98 -93.8347 1202.49 -90.8633Z" fill="#342F2C"/>
<path d="M1502.51 -99.8989H1509.09C1510.4 -99.4138 1511.67 -98.9085 1512.9 -98.3627V-96.1796C1509.53 -97.6619 1506.06 -98.9047 1502.51 -99.8989Z" fill="#342F2C"/>
<path d="M1393.29 -98.3627C1373.46 -97.4553 1353.58 -97.9687 1333.82 -99.8989H1416.52C1408.84 -99.2521 1401.03 -98.7063 1393.29 -98.3627Z" fill="#342F2C"/>
<path d="M1400.83 610.217C1398.27 628.409 1392.92 641.912 1384.49 651.817C1380.6 656.552 1375.74 660.399 1370.25 663.101C1364.75 665.802 1358.74 667.297 1352.62 667.483C1349.57 667.496 1346.54 667.067 1343.61 666.209C1331.5 662.631 1321.16 651.433 1315.17 635.444C1312.69 628.322 1310.67 621.051 1309.12 613.673C1307.6 607.286 1306.03 600.696 1303.87 594.45C1294.92 568.475 1275.63 547.372 1258.31 529.644C1256.09 527.36 1253.83 525.076 1251.57 522.791C1235.13 506.135 1218.11 488.913 1206.61 468.214C1195.47 448.141 1181.9 405.551 1210.26 387.924C1235.49 372.258 1273.55 393.321 1294.01 407.289C1320.94 425.664 1341.83 450.426 1357.04 469.952C1367.33 482.713 1376.42 496.402 1384.19 510.845C1399.79 541.47 1405.6 576.166 1400.83 610.217ZM1382.31 511.734C1374.61 497.404 1365.58 483.822 1355.37 471.165C1340.26 451.76 1319.48 427.139 1292.84 408.906C1272.81 395.241 1235.55 374.542 1211.29 389.602C1184.24 406.42 1197.53 447.697 1208.34 467.183C1219.72 487.7 1236.58 504.821 1252.98 521.376L1259.74 528.229C1277.25 546.118 1296.67 567.424 1305.77 593.783C1307.95 600.13 1309.52 606.78 1311.05 613.208C1312.61 620.505 1314.63 627.695 1317.1 634.736C1322.85 650.119 1332.76 660.893 1344.23 664.269C1359.16 668.675 1374.49 660.549 1383 650.523C1391.17 640.901 1396.37 627.641 1398.87 609.934C1403.55 576.273 1397.77 541.986 1382.31 511.734Z" fill="#342F2C"/>
<path d="M1369.63 569.465C1368.5 580.017 1365.33 588.325 1360.23 594.207C1357.84 596.912 1354.9 599.078 1351.62 600.563C1348.33 602.047 1344.77 602.816 1341.17 602.818C1338.24 602.83 1335.34 602.295 1332.61 601.242L1331.83 600.918C1322.17 596.774 1316.22 586.769 1312.93 579.067C1311.5 575.752 1310.31 572.235 1309.03 568.515C1307.54 564.149 1306.01 559.641 1303.99 555.134C1297.3 540.256 1285.56 527.259 1275.07 516.242L1272.12 513.19C1262.42 503.083 1252.4 492.713 1245.74 480.585C1238.86 468.032 1231.78 444.2 1248.83 434.477C1255.91 430.434 1264.96 430.212 1275.67 433.85C1284.29 436.781 1293.71 442.138 1304.42 450.244C1318.22 461.028 1330.52 473.612 1341.01 487.66C1347.04 495.197 1352.43 503.223 1357.14 511.654C1360.71 518.273 1363.59 525.243 1365.73 532.454C1368.87 542.634 1370.33 553.257 1370.05 563.907C1369.89 565.746 1369.77 567.626 1369.63 569.465ZM1363.78 533.08C1361.67 526.003 1358.85 519.161 1355.35 512.664C1350.7 504.332 1345.37 496.401 1339.41 488.953C1328.99 475.056 1316.76 462.609 1303.06 451.942C1292.51 443.977 1283.3 438.701 1274.83 435.77C1264.74 432.314 1256.19 432.475 1249.61 436.215C1233.94 445.17 1240.8 467.708 1247.29 479.614C1253.79 491.52 1263.77 501.85 1273.37 511.775L1276.32 514.847C1286.93 525.985 1298.81 539.104 1305.63 554.305C1307.64 558.893 1309.24 563.462 1310.75 567.868C1312 571.547 1313.19 575.004 1314.58 578.258C1317.73 585.616 1323.38 595.178 1332.43 599.059L1333.16 599.362C1337.55 600.927 1342.31 601.145 1346.82 599.99C1351.34 598.834 1355.41 596.356 1358.51 592.873C1363.33 587.314 1366.34 579.37 1367.41 569.243C1367.61 567.464 1367.73 565.625 1367.81 563.826C1368.13 553.402 1366.74 542.997 1363.72 533.02L1363.78 533.08Z" fill="#342F2C"/>
<path d="M1329.18 539.306C1325.85 539.229 1322.64 537.993 1320.11 535.809C1317.39 533.205 1315.08 530.199 1313.27 526.895C1312.44 525.541 1311.58 524.126 1310.65 522.852C1308.75 520.578 1306.73 518.406 1304.6 516.343C1300.72 512.482 1295.94 507.692 1291.83 502.84C1285.13 494.896 1282.35 489.176 1283.34 485.315C1283.62 484.303 1284.16 483.381 1284.9 482.632C1285.63 481.883 1286.55 481.332 1287.55 481.029C1291.73 479.433 1296.47 479.958 1301.67 482.647C1306.68 485.482 1311.19 489.106 1315.05 493.38C1321.81 500.794 1327.92 508.773 1333.32 517.233L1333.84 518.021C1335.8 520.667 1337.26 523.646 1338.16 526.814C1338.63 528.505 1338.68 530.286 1338.3 532C1337.92 533.713 1337.12 535.306 1335.98 536.638C1335.1 537.543 1334.04 538.248 1332.87 538.709C1331.7 539.169 1330.44 539.372 1329.18 539.306ZM1336.04 527.178C1335.18 524.266 1333.82 521.529 1332.01 519.092L1331.48 518.304C1326.14 509.952 1320.1 502.068 1313.43 494.734C1309.73 490.623 1305.39 487.136 1300.58 484.405C1298.07 482.988 1295.25 482.204 1292.37 482.121C1290.93 482.108 1289.5 482.369 1288.16 482.889C1287.46 483.081 1286.82 483.446 1286.3 483.951C1285.77 484.456 1285.39 485.085 1285.17 485.78C1284.39 488.913 1287.19 494.189 1293.24 501.486C1297.28 506.277 1302.04 511.047 1305.87 514.868C1308.14 516.998 1310.27 519.266 1312.26 521.659C1313.21 523.014 1314.1 524.449 1314.94 525.844C1316.65 528.964 1318.82 531.806 1321.38 534.273C1325.07 537.447 1331.14 538.599 1334.33 535.223C1335.23 534.128 1335.86 532.831 1336.16 531.441C1336.46 530.051 1336.42 528.61 1336.04 527.239V527.178Z" fill="#342F2C"/>
<path d="M427.537 682.583C419.106 658.326 407.548 634.655 396.373 611.834C384.654 587.921 372.552 563.32 364.1 537.548C344.172 477.755 350.425 421.156 380.862 386.165C392.46 372.824 407.084 362.778 421.446 353.055C462.17 325.281 502.37 300.883 546.322 307.27C554.199 308.591 561.982 310.428 569.619 312.769C574.642 314.184 579.846 315.659 585.009 316.811C606.168 321.481 628.396 320.996 649.898 320.531L658.894 320.349C690.603 319.803 722.714 320.834 754.342 323.401C766.626 324.392 778.547 325.685 789.318 330.496C798.979 334.802 807.189 341.735 814.107 347.88C836.638 367.912 862.013 398.698 854.913 431.546C849.487 456.712 824.838 477.512 789.035 487.195C779.353 489.823 769.288 491.763 759.546 493.663C740.323 497.383 720.455 501.243 703.068 510.4C668.253 528.593 642.98 569.162 635.456 618.828C630.151 654.041 633.076 690.345 635.9 725.456C636.606 734.148 637.332 743.123 637.917 751.957C640.377 789.069 640.62 826.295 638.643 863.437C637.836 878.658 636.485 895.132 632.188 910.778H630.171C634.548 895.152 635.9 878.597 636.707 863.336C638.68 826.295 638.438 789.17 635.981 752.159C635.396 743.346 634.669 734.371 633.963 725.699C631.14 690.466 628.195 654.041 633.56 618.565C641.164 568.273 666.821 527.178 702.14 508.662C719.89 499.364 739.92 495.482 759.284 491.723C768.986 489.843 779.011 487.882 788.632 485.295C823.709 475.794 847.792 455.56 853.077 431.162C859.955 399.264 835.024 369.105 812.877 349.437C806.079 343.373 798.031 336.581 788.672 332.376C778.163 327.707 766.484 326.433 754.382 325.443C722.815 322.896 690.784 321.865 659.116 322.411L650.14 322.593C628.517 323.058 606.188 323.543 584.767 318.813C579.543 317.681 574.339 316.205 569.276 314.77C561.717 312.456 554.016 310.64 546.221 309.332C502.995 303.046 463.179 327.242 422.777 354.793C408.657 364.435 394.014 374.421 382.577 387.56C352.623 421.924 346.512 477.856 366.218 536.961C374.73 562.512 386.812 587.153 398.491 610.985C409.686 633.847 421.264 657.477 429.736 681.936C456.301 758.749 451.802 840.09 439.821 910.818H437.804C449.463 840.251 454.001 759.011 427.537 682.583Z" fill="#342F2C"/>
<path d="M663.856 772.636C664.018 732.915 664.179 691.78 669 652.1C670.896 636.475 673.68 620 681.102 605.426C687.738 592.327 698.066 580.381 714.565 566.696C740.686 545.027 767.009 531.281 793.049 525.844C834.076 517.253 877.766 528.613 912.682 537.73C958.63 549.696 1015.83 564.594 1064.57 592.206C1078.89 600.292 1096.15 611.915 1102.61 629.905C1105.65 638.415 1106.32 648.522 1104.63 660.833C1100.85 688.546 1087.94 714.662 1075.46 739.93C1058.78 773.646 1043.04 805.504 1046.88 840.999C1049.7 867.116 1063.19 890.342 1078.52 910.717H1075.98C1060.88 890.503 1047.74 867.277 1044.88 841.222C1040.97 805.059 1057.59 771.443 1073.64 738.959C1086.07 713.833 1098.9 687.858 1102.63 660.469C1104.24 648.502 1103.6 638.698 1100.61 630.512C1094.4 613.148 1077.52 601.808 1063.5 593.884C1015.09 566.393 957.944 551.435 912.096 539.609C877.282 530.533 833.935 519.254 793.392 527.744C767.735 533.121 741.634 546.705 715.755 568.172C699.478 581.675 689.332 593.419 682.817 606.255C675.555 620.546 672.731 636.818 670.956 652.262C666.136 691.901 665.974 732.915 665.813 772.555C665.631 818.36 665.43 865.216 658.047 910.717H656.03C663.473 865.337 663.655 818.441 663.856 772.636Z" fill="#342F2C"/>
<path d="M698.953 800.309C699.538 768.876 700.143 736.392 703.834 704.858C704.379 700.027 704.924 696.126 705.529 692.548C706.868 683.165 709.544 674.022 713.476 665.401C718.841 654.162 727.414 643.61 740.485 632.169C761.381 613.976 783.024 602.03 804.829 596.997C837.102 589.558 870.222 596.572 904.169 605.082C946.81 615.614 991.67 628.652 1030.78 652.585C1043.08 660.105 1056.36 669.828 1061.46 684.705C1063.9 691.841 1064.4 700.31 1063.03 710.599C1059.95 733.421 1049.7 755.07 1039.78 775.89C1037.28 781.146 1034.71 786.563 1032.29 791.9C1022.61 813.326 1014.14 836.552 1016.98 861.314C1019.1 879.204 1026.95 895.375 1037.54 910.838H1035.1C1024.75 895.476 1017.08 879.406 1014.93 861.557C1011.94 836.31 1020.59 812.76 1030.4 791.071C1032.82 785.714 1035.4 780.277 1037.9 775.021C1047.74 754.281 1057.93 732.834 1060.96 710.336C1062.31 700.391 1061.82 692.144 1059.48 685.372C1054.6 671.101 1041.67 661.661 1029.67 654.323C990.782 630.532 946.104 617.554 903.625 607.063C869.92 598.654 837.062 591.701 805.212 598.978C783.751 603.93 762.39 615.614 741.755 633.705C728.907 644.944 720.475 655.294 715.231 666.27C711.384 674.72 708.762 683.678 707.445 692.871C706.86 696.429 706.336 700.31 705.771 705C702.1 736.453 701.495 768.876 700.91 800.248C700.244 836.876 699.518 874.292 693.89 910.717H691.873C697.561 874.413 698.288 836.956 698.953 800.309Z" fill="#342F2C"/>
<path d="M734.252 826.829C735.119 804.068 736.027 780.519 738.548 757.617C738.972 753.574 739.375 750.501 739.819 747.51C740.858 739.865 742.892 732.389 745.87 725.274C749.904 715.875 756.682 706.799 766.424 697.561C781.915 682.845 799.282 672.637 816.609 668.069C842.831 661.156 870.021 666.351 895.678 672.253C938.419 682.118 971.58 695.378 997.015 712.782C1006.43 719.23 1016.56 727.417 1020.33 739.323C1022.22 746.113 1022.58 753.236 1021.4 760.184C1019.02 778.093 1011.32 795.134 1004.05 811.608C1002.04 816.217 999.859 821.008 997.882 825.758C990.701 842.859 984.408 861.415 987.071 881.427C988.612 891.785 992.11 901.753 997.378 910.798H995.078C989.959 901.814 986.54 891.959 984.993 881.73C982.27 861.254 988.644 842.374 995.946 825.131C997.963 820.401 999.98 815.61 1002.14 810.982C1009.44 794.628 1016.98 777.73 1019.32 760.123C1020.46 753.466 1020.12 746.639 1018.32 740.132C1014.74 728.812 1004.92 720.888 995.805 714.662C970.571 697.379 937.653 684.22 895.133 674.436C869.738 668.574 842.79 663.42 817.052 670.232C800.048 674.719 782.984 684.746 767.735 699.239C758.194 708.275 751.599 717.128 747.564 726.285C744.696 733.237 742.75 740.536 741.775 747.995C741.332 750.865 740.928 754.059 740.505 757.94C738.004 780.782 737.096 804.27 736.229 827.011C735.159 854.826 734.07 883.186 729.996 910.899H727.979C732.235 883.085 733.284 854.684 734.252 826.829Z" fill="#342F2C"/>
<path d="M770.418 850.48C771.265 837.3 772.153 823.696 773.464 810.375C773.726 807.788 773.988 805.2 774.331 802.633C774.99 796.757 776.302 790.974 778.244 785.391C781.433 777.114 786.232 769.556 792.363 763.155C802.13 752.233 814.546 744.023 828.408 739.323C847.792 733.077 868.992 735.988 887.186 739.647C908.466 743.932 938.944 753.251 963.31 773.242C970.127 778.821 976.764 785.229 979.224 794.184C980.476 799.36 980.675 804.736 979.809 809.991C978.115 822.928 973.133 835.339 968.312 847.346C966.678 851.389 965.004 855.594 963.491 859.717C959.013 871.846 954.757 886.319 957.178 901.601C957.692 904.716 958.454 907.785 959.457 910.778H957.44C956.496 907.886 955.775 904.926 955.282 901.924C952.781 886.177 957.117 871.401 961.696 859.01C963.229 854.967 964.903 850.661 966.537 846.599C971.317 834.693 976.259 822.342 977.913 809.728C978.737 804.744 978.558 799.644 977.389 794.73C975.069 786.3 968.675 780.175 962.12 774.799C937.975 755.151 907.719 745.893 886.762 741.648C868.83 738.05 847.954 735.159 828.993 741.264C815.467 745.871 803.353 753.891 793.816 764.55C787.883 770.758 783.236 778.082 780.14 786.098C778.241 791.535 776.962 797.171 776.328 802.896C776.005 805.443 775.723 808.01 775.46 810.577C774.149 823.858 773.282 837.462 772.435 850.601C771.144 870.592 769.833 890.867 766.908 910.798H764.891C767.796 890.847 769.127 870.512 770.418 850.48Z" fill="#342F2C"/>
<path d="M808.278 863.154C808.419 861.334 808.56 859.515 808.742 857.716C809.053 853.584 809.68 849.482 810.618 845.446C812.114 839.462 814.692 833.803 818.222 828.75C823.765 820.843 831.313 814.563 840.087 810.557C850.495 805.888 863.102 804.736 878.613 806.999C898.784 809.951 917.784 819.936 929.604 833.722C933.736 837.988 936.667 843.275 938.096 849.044C938.67 852.592 938.67 856.21 938.096 859.758C936.894 867.495 934.99 875.107 932.408 882.498C931.258 886.137 930.048 889.897 929.06 893.576C927.46 899.165 926.532 904.927 926.297 910.737H924.279C924.503 904.749 925.452 898.81 927.103 893.05C928.092 889.311 929.302 885.531 930.472 881.872C933.04 874.573 934.943 867.057 936.16 859.414C936.696 856.067 936.696 852.655 936.16 849.307C934.776 843.884 931.994 838.92 928.092 834.915C916.574 821.493 897.977 811.75 878.351 808.879C863.223 806.656 850.979 807.768 840.934 812.275C832.464 816.17 825.192 822.271 819.876 829.942C816.488 834.802 814.014 840.241 812.574 845.992C811.665 849.923 811.052 853.916 810.739 857.938C810.578 859.738 810.436 861.537 810.295 863.356C809.045 879.123 807.754 895.132 805.394 910.838H803.377C805.737 895.051 807.028 879.001 808.278 863.154Z" fill="#342F2C"/>
<path d="M844.041 894.627C845.619 888.909 848.995 883.854 853.668 880.213C858.341 876.571 864.062 874.537 869.98 874.413C875.905 874.529 881.635 876.559 886.316 880.201C890.997 883.843 894.379 888.903 895.96 894.627C897.115 900.012 897.246 905.567 896.343 911H894.326C895.258 905.741 895.155 900.351 894.023 895.132C892.549 889.853 889.416 885.19 885.089 881.836C880.761 878.483 875.47 876.617 870 876.515C864.524 876.632 859.233 878.516 854.912 881.889C850.591 885.261 847.471 889.941 846.017 895.233C845.077 899.798 844.772 904.471 845.11 909.12C845.11 909.747 845.11 910.373 845.11 911H843.093C843.093 910.394 843.093 909.787 843.093 909.181C842.734 904.309 843.053 899.411 844.041 894.627Z" fill="#342F2C"/>
<path d="M411.743 522.69C407.403 522.248 403.175 521.037 399.258 519.112C392.218 515.191 387.397 506.984 385.32 495.159C380.055 465.364 391.633 431.243 415.576 406.218C435.323 385.236 463.421 369.469 499.042 358.957C522.178 352.145 542.49 349.295 561.107 350.266C575.67 351.013 590.133 354.187 604.111 357.219C612.986 359.241 622.164 361.161 631.281 362.535C651.209 365.527 671.783 365.608 691.672 365.689C703.774 365.689 716.159 365.689 728.382 366.477C741.312 367.205 754.947 368.701 767.17 374.704C780.422 381.213 789.782 392.897 791.557 405.025C796.962 442.138 752.748 454.711 726.325 462.231L725.115 462.574C709.765 466.961 695.282 473.409 681.264 479.655C672.489 483.576 663.413 487.74 654.114 491.177C592.936 514.504 528.047 526.794 468.968 526.794C449.816 526.897 430.685 525.525 411.743 522.69ZM680.457 477.937C694.576 471.67 709.079 465.182 724.57 460.755L725.78 460.411C751.558 453.074 794.723 440.784 789.56 405.45C787.865 393.867 778.95 382.81 766.283 376.584C754.382 370.742 740.989 369.267 728.261 368.498C716.159 367.811 703.673 367.751 691.651 367.71C671.703 367.71 651.068 367.548 630.978 364.537C621.8 363.162 612.603 361.141 603.687 359.2C589.77 356.168 575.448 353.035 560.986 352.287C542.631 351.337 522.541 354.147 499.607 360.898C464.328 371.268 436.533 386.934 417.008 407.39C393.529 432.051 382.153 465.485 387.297 494.654C388.668 502.416 392.037 512.644 400.246 517.192C403.95 519.003 407.945 520.139 412.046 520.548C483.995 531.726 571.959 520.305 653.408 489.257C662.626 485.861 671.723 481.818 680.457 477.916V477.937Z" fill="#342F2C"/>
<path d="M460.455 477.431C452.649 458.774 457.248 437.388 472.558 421.6C483.712 410.018 499.687 401.164 520.06 395.322C531.432 391.781 543.289 390.055 555.197 390.208C563.702 390.676 572.158 391.797 580.491 393.564C585.211 394.453 590.092 395.363 594.893 395.989C604.014 397.038 613.185 397.592 622.365 397.647H625.209C633.277 397.809 641.487 397.97 649.575 398.658C657.133 398.985 664.569 400.683 671.521 403.671C679.206 407.37 684.692 413.636 686.165 420.448C686.861 423.317 686.928 426.302 686.36 429.199C685.792 432.096 684.604 434.834 682.877 437.226C676.1 446.726 661.557 451.76 651.956 455.095C644.259 457.91 636.717 461.135 629.364 464.757C624.1 467.244 618.654 469.811 613.087 472.055C579.182 485.955 542.954 493.288 506.323 493.663C497.051 493.688 487.786 493.107 478.589 491.925C476.169 491.675 473.798 491.076 471.549 490.146C466.87 488.024 463.098 483.738 460.455 477.431ZM472.558 488.306C474.641 489.157 476.835 489.702 479.073 489.924C519.797 495.28 568.388 488.084 612.421 470.195C617.928 467.951 623.333 465.404 628.557 462.938C635.955 459.291 643.544 456.045 651.29 453.215C660.669 449.961 674.829 445.13 681.223 436.074C682.797 433.92 683.879 431.445 684.391 428.825C684.904 426.204 684.834 423.503 684.188 420.913C682.857 414.708 677.794 408.967 670.654 405.53C663.919 402.659 656.725 401.022 649.414 400.699C641.346 400.032 633.136 399.87 625.209 399.689H622.365C613.11 399.634 603.865 399.074 594.671 398.011C589.81 397.384 584.908 396.454 580.148 395.585C571.922 393.829 563.574 392.714 555.177 392.25C543.409 392.047 531.684 393.726 520.443 397.222C500.413 403.024 484.721 411.696 473.829 422.995C459.165 438.196 454.727 458.754 462.21 476.643C464.752 482.465 468.181 486.305 472.457 488.327L472.558 488.306Z" fill="#342F2C"/>
<path d="M564.576 429.585C568.397 430.099 572.129 431.132 575.67 432.657C579.866 434.376 582.125 436.539 582.609 439.267C583.093 441.996 581.863 444.483 578.938 447.353C570.547 455.62 558.283 460.553 544.406 461.26H543.337C535.591 461.26 528.047 457.056 525.506 451.153C523.489 446.484 524.86 441.451 529.419 437.003C536.297 430.333 556.246 428.594 564.576 429.585ZM527.341 450.425C529.661 455.742 537.104 459.603 544.305 459.239C557.678 458.572 569.478 453.821 577.526 445.918C579.926 443.533 580.955 441.471 580.612 439.611C580.269 437.751 578.413 435.952 574.904 434.517C571.534 433.072 567.986 432.086 564.354 431.586C562.706 431.412 561.05 431.331 559.392 431.344C550.033 431.344 535.954 433.486 530.831 438.499C526.857 442.401 525.647 446.524 527.341 450.425Z" fill="#342F2C"/>
<path d="M475.079 741.466C473.062 728.569 470.359 715.451 467.798 702.756C460.98 668.979 453.92 634.029 457.228 599.301C457.954 591.681 459.366 582.968 464.369 576.257C470.299 568.293 480.122 564.553 488.029 562.108C513.242 554.568 538.072 555.053 557.96 563.502C567.521 567.545 574.682 572.983 579.2 579.673C584.929 588.103 586.482 598.452 587.268 607.447C588.222 622.044 588.31 636.685 587.531 651.292C587.147 662.328 586.764 673.749 587.167 684.948C588.156 711.954 593.804 738.939 599.27 765.015C602.316 779.589 605.482 794.669 607.802 809.627C614.075 850.055 612.28 883.469 602.336 910.697H600.178C610.263 883.57 612.078 850.338 605.805 809.85C603.486 794.952 600.339 779.913 597.293 765.379C591.807 739.101 586.159 712.136 585.191 684.968C584.787 673.689 585.191 662.247 585.554 651.15C586.33 636.624 586.249 622.065 585.312 607.548C584.565 598.816 583.073 588.79 577.586 580.765C573.29 574.458 566.452 569.284 557.234 565.362C537.77 557.115 513.424 556.63 488.654 564.048C481.05 566.332 471.61 569.89 466.043 577.389C461.343 583.696 459.992 592.065 459.306 599.423C456.018 633.786 463.057 668.655 469.835 702.291C472.417 714.986 475.059 728.125 477.116 741.062C486.017 797.393 484.651 854.875 473.082 910.717H471.065C482.607 855.008 483.967 797.662 475.079 741.466Z" fill="#342F2C"/>
<path d="M518.809 909.787C520.221 901.702 523.791 894.283 527.261 887.127C528.477 884.037 530.389 881.27 532.848 879.042C534.223 877.865 535.953 877.185 537.76 877.112C539.567 877.039 541.346 877.576 542.812 878.638C545.818 881.265 545.475 885.672 544.728 889.614L540.795 910.757H538.778L542.812 889.25C543.438 885.854 543.78 882.114 541.542 880.154C540.431 879.405 539.104 879.046 537.768 879.134C536.432 879.222 535.163 879.751 534.159 880.639C531.957 882.676 530.241 885.184 529.136 887.976C525.728 895.011 522.218 902.288 520.867 910.091C520.867 910.313 520.867 910.535 520.867 910.757H518.849C518.729 910.454 518.749 910.111 518.809 909.787Z" fill="#342F2C"/>
<path d="M493.132 864.831C497.822 794.817 491.933 724.495 475.664 656.244L475.059 653.697C472.659 643.731 470.198 633.483 470.319 622.972C470.5 610.116 475.039 598.836 482.784 592.004C487.565 587.82 493.939 584.808 502.834 582.564C521.734 577.814 538.032 581.21 546.483 591.701C552.091 598.675 553.684 607.872 554.834 616.766C556.609 630.572 557.839 644.702 559.029 658.366C561.47 686.342 563.991 715.248 571.354 742.719C573.371 749.834 575.529 756.869 577.708 763.883C579.886 770.897 582.185 778.033 584.102 785.128C594.971 826.294 595.096 869.569 584.465 910.798H582.448C593.136 869.761 593.059 826.652 582.226 785.654C580.33 778.538 578.07 771.403 575.872 764.49C573.673 757.576 571.414 750.34 569.498 743.245C562.095 715.592 559.554 686.646 557.113 658.548C555.923 644.904 554.693 630.794 552.898 617.029C551.808 608.458 550.275 599.524 544.991 592.954C533.251 578.38 510.196 582.847 503.399 584.525C494.826 586.688 488.735 589.558 484.196 593.54C476.875 599.968 472.578 610.702 472.417 622.992C472.296 633.099 474.736 643.368 477.096 653.313L477.701 655.84C494.009 724.291 499.919 794.816 495.23 865.034C494.479 880.48 492.181 895.812 488.372 910.798H486.355C490.49 895.84 492.103 880.032 493.132 864.831Z" fill="#342F2C"/>
<path d="M511.064 845.466C511.502 830.633 511.112 815.786 509.894 800.996L505.86 738.11C504.952 723.637 503.843 705.647 512.012 691.153C512.982 689.159 514.501 687.482 516.389 686.322C520.705 684.038 525.808 686.686 529.157 689.92C538.798 699.259 541.683 712.843 544.486 726.002C545.112 728.933 545.737 731.844 546.503 734.694C549.993 749.086 555.903 762.994 561.611 776.577C568.731 793.395 576.074 810.8 578.857 829.134C582.891 855.877 577.344 882.317 569.014 910.818H566.997C575.347 882.337 580.955 855.958 576.941 829.437C574.198 811.244 566.856 794.062 559.836 777.345C554.108 763.762 548.157 749.693 544.628 735.139C543.942 732.289 543.316 729.338 542.61 726.406C539.867 713.55 537.023 700.25 527.825 691.355C525.001 688.606 520.766 686.302 517.417 688.081C515.878 689.073 514.642 690.472 513.847 692.124C505.92 706.071 507.05 723.738 507.957 737.949L511.991 800.814C513.212 815.698 513.602 830.639 513.161 845.568C512.092 867.803 507.372 889.513 501.543 910.798H499.526C505.234 889.452 510.015 867.661 511.064 845.466Z" fill="#342F2C"/>
<path d="M521.936 874.959C522.48 873.766 523.045 872.573 523.61 871.381C526.352 866.17 528.432 860.635 529.802 854.906C530.631 849.559 530.908 844.14 530.629 838.735C530.468 829.134 530.306 819.209 536.358 811.628L536.741 811.143L537.346 811.265C546.322 813.144 553.825 821.654 557.396 834.025C562.821 852.784 559.756 872.432 556.77 891.494C555.782 897.841 554.753 904.289 554.067 910.737H552.05C552.756 904.168 553.765 897.618 554.773 891.19C557.718 872.371 560.825 852.905 555.459 834.591C552.171 823.231 545.515 815.348 537.548 813.387C532.344 820.32 532.485 829.255 532.646 838.715C532.925 844.235 532.634 849.769 531.779 855.23C530.373 861.123 528.246 866.819 525.445 872.189C524.88 873.382 524.316 874.554 523.771 875.747C518.753 887.045 514.704 898.751 511.669 910.737H509.652C512.74 898.487 516.849 886.519 521.936 874.959Z" fill="#342F2C"/>
<path d="M884.221 10.4894C888.903 29.3368 892.593 48.4183 895.274 67.6544C897.896 84.4118 900.619 101.735 904.714 118.472C915.182 161.366 933.659 192.132 959.659 209.9C976.743 221.584 997.317 227.547 1015.19 231.832C1065.29 243.839 1117.49 248.347 1167.96 252.693L1238.84 258.757C1291.55 263.305 1351.29 268.46 1403.11 244.789C1426.15 234.258 1446.48 218.511 1466.14 203.148L1512.9 166.763V169.331L1467.39 204.766C1447.63 220.128 1427.19 236.036 1403.96 246.649C1373.26 260.657 1339.92 264.68 1306.88 264.68C1283.64 264.68 1260.48 262.658 1238.66 260.799L1167.78 254.734C1117.35 250.388 1064.91 245.881 1014.72 233.833C996.672 229.507 975.876 223.484 958.529 211.598C932.106 193.547 913.347 162.377 902.757 118.978C898.723 102.16 895.92 84.7958 893.277 67.9778C890.312 49.1586 887.226 29.6926 882.264 11.0149C871.191 -30.0656 850.792 -68.025 822.66 -99.8989H825.342C853.087 -68.0665 873.223 -30.3136 884.221 10.4894Z" fill="#342F2C"/>
<path d="M845.412 90.1121C847.026 96.5199 848.498 103.089 849.951 109.457C854.771 130.843 859.774 152.977 870.121 172.524C889.848 209.9 924.945 231.367 950.804 242.808C985.558 258.11 1023.62 264.659 1056.58 269.571C1093.37 275.07 1130.97 279.436 1167.4 283.721C1227.52 290.695 1289.69 297.871 1351.23 295.647C1412.77 293.424 1467.19 281.498 1512.86 260.152V262.375C1467.13 283.519 1412.89 295.405 1351.31 297.669C1343.41 297.952 1335.5 298.093 1327.59 298.093C1273.7 298.093 1219.64 291.827 1167.07 285.722C1130.77 281.518 1093.11 277.152 1056.28 271.573C1023.2 266.64 984.973 260.071 949.997 244.668C923.775 233.105 888.255 211.355 868.266 173.454C857.817 153.685 852.795 131.429 847.934 109.902C846.501 103.554 845.029 96.9848 843.415 90.5972C825.319 19.0051 788.959 -46.6413 737.903 -99.8989H740.686C791.314 -46.6371 827.383 18.8062 845.412 90.1121Z" fill="#342F2C"/>
<path d="M1287.31 810.719C1286.07 793.228 1285.81 775.682 1286.52 758.163C1287.15 730.57 1287.79 702.028 1280.35 675.164C1268.94 633.928 1240.01 600.757 1211.77 568.677C1193.82 548.18 1175.28 526.976 1161.14 503.608C1146.28 479.049 1134.92 450.042 1126.59 414.93C1122.96 399.648 1120.2 383.477 1124.57 368.62C1129.44 352.449 1143.47 337.935 1162.11 330.011C1179.66 322.512 1199.21 320.996 1216.01 320.511C1263.93 319.136 1312.46 325.443 1359.38 331.588C1409.67 338.137 1461.48 344.889 1512.68 342.099V344.12C1461.28 346.91 1409.4 340.078 1359.06 333.589C1312.2 327.525 1263.77 321.157 1216.01 322.532C1199.41 323.017 1180.08 324.553 1162.84 331.871C1144.68 339.572 1131.15 353.54 1126.53 369.206C1122.01 384.306 1125.18 400.477 1128.55 414.465C1136.88 449.354 1148.09 478.179 1162.84 502.557C1176.96 525.763 1195.39 546.907 1213.26 567.363C1241.5 599.604 1270.65 632.937 1282.19 674.618C1289.71 701.766 1289.07 730.469 1288.44 758.223C1287.73 775.682 1287.98 793.167 1289.21 810.597C1292.49 846.161 1303.95 880.479 1322.69 910.859H1320.33C1301.84 880.444 1290.54 846.188 1287.31 810.719Z" fill="#342F2C"/>
<path d="M1379.71 359.281C1394.28 355.238 1409.77 358.25 1423.42 360.979L1512.84 378.848V380.869L1423.02 362.919C1409.59 360.231 1394.36 357.179 1380.28 361.181C1367.05 364.941 1354.4 377.352 1356.07 391.623C1357.32 401.872 1365.35 409.957 1372.45 417.093C1440.89 485.921 1488.63 561.036 1512.76 636.212V643.085C1489.42 566.13 1441.13 489.034 1371.02 418.508C1363.7 411.15 1355.41 402.802 1354.06 391.866C1352.34 376.564 1365.73 363.263 1379.71 359.281Z" fill="#342F2C"/>
<path d="M1347.1 870.128C1353.98 884.137 1361.7 897.719 1370.21 910.798H1367.77C1359.52 897.99 1352.02 884.714 1345.3 871.037C1335.76 852.016 1326.83 831.458 1325.84 809.809C1324.77 785.916 1334.95 763.661 1351.82 753.21C1360.61 747.712 1370.9 745.266 1380.86 742.901C1391.33 740.415 1402.14 737.847 1410.94 731.723C1418.74 726.285 1424.53 718.341 1430.14 710.639C1432.94 706.799 1435.83 702.837 1438.97 699.198C1447.93 688.748 1463.5 678.52 1477.88 684.099C1486.84 687.575 1492.53 696.227 1496.04 702.534C1504.1 716.683 1509.01 732.349 1512.92 748.157V756.909C1508.72 738.434 1503.54 720.019 1494.28 703.524C1490.93 697.46 1485.51 689.213 1477.18 685.979C1463.78 680.784 1449.06 690.567 1440.51 700.512C1437.44 704.09 1434.58 708.032 1431.79 711.832C1426.08 719.655 1420.2 727.74 1412.11 733.38C1402.99 739.727 1391.94 742.335 1381.35 744.862C1371.54 747.186 1361.42 749.612 1352.91 754.969C1336.65 765.076 1326.85 786.684 1327.87 809.85C1328.82 830.973 1337.68 851.308 1347.1 870.128Z" fill="#342F2C"/>
<path d="M1445.21 398.435C1439.54 401.528 1436.55 407.532 1435.12 412.019C1429.29 429.363 1436.09 446.625 1440.67 455.378C1447.14 467.749 1456.62 478.503 1465.78 488.893L1468.08 491.5C1484.22 509.935 1500.9 530.594 1512.98 553.335V557.721C1500.88 533.788 1483.51 512.098 1466.59 492.834L1464.29 490.247C1455.05 479.756 1445.49 468.901 1438.89 456.308C1434.17 447.272 1427.15 429.423 1433.23 411.372C1434.86 406.541 1438.11 400.073 1444.34 396.656C1449.16 394.008 1454.83 393.746 1460.19 393.826C1478.36 394.158 1496.3 398.016 1513 405.187V407.471C1496.32 400.163 1478.36 396.234 1460.15 395.909C1454.95 395.767 1449.62 396.01 1445.21 398.435Z" fill="#342F2C"/>
<path d="M1422.86 910.798H1420.52C1415.73 902.909 1411.59 894.641 1408.15 886.076C1402.2 870.896 1396.62 848.013 1403.94 825.192C1408.81 810.079 1418.74 797.118 1432.06 788.504C1438.81 783.836 1446.72 781.135 1454.91 780.701C1475.42 780.357 1489.88 798.59 1495.13 806.494C1502.97 818.861 1508.95 832.311 1512.9 846.417V853.572C1508.34 837.401 1502.81 821.533 1493.45 807.606C1488.39 799.985 1474.58 782.298 1454.95 782.722C1447.13 783.148 1439.58 785.737 1433.14 790.202C1420.28 798.648 1410.68 811.242 1405.93 825.899C1398.77 848.135 1404.26 870.532 1410.09 885.409C1413.62 894.218 1417.89 902.712 1422.86 910.798Z" fill="#342F2C"/>
<path d="M1461.04 910.798H1459.02L1457.45 905.562C1453.42 892.019 1448.41 875.242 1452.61 859.495C1452.97 857.744 1453.76 856.108 1454.89 854.724C1457.07 852.339 1460.94 851.652 1465.4 852.703C1482.7 857.13 1491.16 876.434 1495.21 891.857C1495.77 893.98 1496.3 896.123 1496.84 898.265C1497.87 902.429 1498.86 906.614 1500.15 910.717H1498.13C1496.96 906.674 1495.96 902.753 1494.97 898.771C1494.42 896.608 1493.9 894.485 1493.33 892.363C1489.42 877.465 1481.23 858.828 1464.97 854.664C1463.2 854.219 1458.92 853.431 1456.46 856.018C1455.56 857.163 1454.93 858.507 1454.65 859.94C1450.61 875.04 1455.51 891.595 1459.47 904.896L1461.04 910.798Z" fill="#342F2C"/>
<path d="M1210.18 640.639C1236.78 647.026 1255.08 690.608 1261.71 715.43C1268.89 742.234 1269.9 772.939 1264.72 806.696C1261.01 830.832 1249.71 873.301 1215.68 886.359C1209.49 888.703 1202.92 889.888 1196.3 889.856C1175.1 889.856 1152.89 878.375 1139.48 858.909C1124.45 837.138 1119.65 807.464 1125.95 775.365C1131.55 746.883 1144.58 720.565 1157.17 695.115C1158.74 691.962 1160.36 688.303 1162.05 684.422C1171.35 663.258 1184.06 634.372 1210.18 640.639ZM1127.92 775.688C1124.35 793.881 1121.29 828.911 1141.13 857.696C1158.26 882.498 1189.99 893.98 1214.96 884.399C1248.04 871.704 1259.07 830.023 1262.72 806.312C1267.87 772.838 1266.76 742.416 1259.76 715.875C1253.26 691.618 1235.39 648.785 1209.71 642.62C1207.54 642.079 1205.3 641.801 1203.06 641.791C1183.01 641.791 1172.5 665.643 1163.91 685.17C1162.19 689.051 1160.56 692.75 1158.98 695.944C1146.44 721.272 1133.47 747.449 1127.92 775.688Z" fill="#342F2C"/>
<path d="M1203.72 705.606C1206.69 705.694 1209.61 706.399 1212.29 707.676C1214.97 708.953 1217.35 710.775 1219.3 713.025C1231.54 727.174 1229.06 757.495 1227.59 775.688C1227.38 778.195 1227.2 780.438 1227.08 782.338C1226.21 796.488 1224.54 808.051 1219.25 818.501C1212.94 830.993 1201.79 839.22 1190.17 839.968H1188.6C1185.93 840.045 1183.28 839.44 1180.91 838.21C1175.85 835.42 1173.61 829.578 1172.2 824.788C1168.89 813.488 1167.3 800.531 1167.15 784.097C1167.15 775.162 1167.62 729.661 1185.91 712.196C1188.24 709.89 1191.04 708.109 1194.11 706.973C1197.18 705.837 1200.46 705.371 1203.72 705.606ZM1169.17 784.138C1169.31 800.43 1170.89 813.165 1174.13 824.282C1175.42 828.689 1177.48 834.066 1181.88 836.411C1184.38 837.634 1187.18 838.138 1189.95 837.866C1202.98 837.017 1212.66 826.789 1217.36 817.491C1222.48 807.384 1224.12 796.043 1224.98 782.136C1225.08 780.216 1225.29 777.952 1225.49 775.445C1226.92 757.576 1229.36 727.68 1217.68 714.258C1215.92 712.221 1213.75 710.57 1211.32 709.408C1208.89 708.246 1206.25 707.599 1203.56 707.506C1200.57 707.304 1197.57 707.74 1194.76 708.785C1191.95 709.831 1189.4 711.462 1187.26 713.571C1169.25 730.894 1169.13 778.761 1169.17 784.138Z" fill="#342F2C"/>
<path d="M802.086 53.6057C805.878 65.4511 809.246 77.6805 812.494 89.5259C820.663 119.16 829.094 149.804 844.767 176.648C870.202 220.512 916.756 256.655 979.386 281.174C983.299 282.697 987.252 284.206 991.246 285.702C1020.49 296.8 1050.73 308.261 1068.06 333.872C1077.15 347.314 1081.49 363.283 1084.86 377.19C1092.33 408.138 1097.23 439.651 1099.52 471.408C1100.79 489.014 1096.86 500.071 1087.84 504.275C1085.44 505.378 1082.82 505.937 1080.18 505.913C1073.68 505.913 1067.15 502.961 1062.27 500.394C1015.19 475.551 982.068 431.344 950.037 388.591C917.099 344.646 883.051 299.185 833.955 275.393C793.13 255.563 745.204 252.774 702.947 250.287C613.651 245.052 512.455 239.129 425.802 281.397C400.165 293.909 376.283 310.565 353.188 326.656C332.291 341.23 310.688 356.309 287.775 368.317C239.457 393.232 185.416 404.879 131.15 402.074C85.3889 400.143 40.619 388.105 0.0402832 366.821V364.537C88.0045 411.655 197.975 413.05 286.726 366.457C309.519 354.51 331.101 339.471 351.917 324.937C375.053 308.766 398.995 292.09 424.794 279.517C511.911 237.067 613.389 242.97 702.927 248.205C745.285 250.692 793.493 253.522 834.681 273.513C884.221 297.568 918.43 343.231 951.51 387.378C983.4 429.949 1016.38 473.975 1063.07 498.555C1069.53 501.971 1079.01 506.054 1086.83 502.416C1095.02 498.595 1098.57 488.266 1097.36 471.529C1095.08 439.875 1090.2 408.463 1082.76 377.615C1079.43 363.89 1075.16 348.123 1066.24 334.964C1049.28 309.878 1019.34 298.578 990.379 287.562C986.344 286.046 982.31 284.55 978.498 283.014C915.465 258.332 868.548 221.887 842.871 177.638C827.158 150.552 818.666 119.786 810.598 90.011C807.35 78.2061 803.982 65.9767 800.21 54.1717C784.678 5.79976 754.422 -58.7029 696.533 -99.8989H699.962C756.762 -58.3391 786.695 5.51676 802.086 53.6057Z" fill="#342F2C"/>
<path d="M773.302 66.482C775.864 77.5592 777.841 88.9801 779.737 100.037C783.428 121.525 787.24 143.76 795.732 164.115C810.396 199.247 839.603 230.943 885.027 261.001C900.72 271.391 917.3 281.033 933.316 290.372C955.362 303.207 978.155 316.488 999.052 331.891C1034.07 357.684 1051.62 384.852 1051.21 412.625V413.373L1050.47 413.576C1047.06 414.515 1043.54 414.991 1040 414.99C1017.57 414.99 997.358 396.09 980.172 376.847C919.66 309.13 851.726 242.768 764.104 215.843C731.69 205.877 695.625 200.905 647.115 199.672C533.453 196.882 445.59 217.743 378.482 263.487C368.659 270.198 359.078 277.637 349.819 284.772C341.509 291.18 332.937 297.831 324.183 303.935C272.405 340.159 209.936 360.534 143.534 362.778C94.4136 364.689 45.4618 355.924 0.0402832 337.086V334.701C103.677 378.221 230.792 366.76 323.033 302.237C331.726 296.173 340.299 289.523 348.589 283.115C357.868 275.939 367.469 268.52 377.352 261.789C444.823 215.782 533.07 194.8 647.155 197.61C695.807 198.802 732.033 203.815 764.649 213.781C852.714 240.847 920.971 307.452 981.625 375.371C1000.85 396.919 1023.86 418.002 1049.16 411.756C1049.16 384.953 1031.93 358.614 997.781 333.447C976.985 318.125 954.233 304.865 932.247 292.07C916.11 282.711 899.611 273.048 883.837 262.618C838.07 232.297 808.621 200.359 793.796 164.823C785.223 144.265 781.37 121.909 777.659 100.32C775.763 89.2833 773.807 77.8827 771.245 66.8661C755.402 -0.0134888 716.417 -59.1004 661.214 -99.8989H664.582C719.091 -58.8564 757.552 0.00428009 773.302 66.482Z" fill="#342F2C"/>
<path d="M691.631 -44.9776C709.301 -18.4772 723.42 12.5714 737.459 55.708C745.749 81.1978 752.365 110.286 738.427 133.249C723.279 158.152 691.49 162.882 669.706 162.882C664.018 162.882 658.995 162.559 655.122 162.195C599.915 156.98 559.715 141.536 528.632 113.56C468.625 59.5688 430.199 -19.2251 423.886 -99.8787H425.903C432.217 -19.7911 470.4 58.4368 529.984 112.064C560.724 139.717 600.581 155.019 655.324 160.194C673.639 161.912 718.236 162.64 736.753 132.218C750.247 109.982 743.732 81.3999 735.583 56.3548C721.605 13.4002 707.546 -17.4867 689.997 -43.8457C675.8 -65.616 657.761 -84.6108 636.767 -99.8989H640.156C660.385 -84.7473 677.807 -66.1588 691.631 -44.9776Z" fill="#342F2C"/>
<path d="M695.343 57.1634C696.657 62.9309 697.287 68.8338 697.219 74.7495C696.149 101.412 670.674 120.696 646.671 123.93C643.228 124.394 639.757 124.623 636.283 124.617C617.524 124.617 597.293 118.028 574.823 104.646C503.943 62.4392 457.188 -17.3856 454.546 -99.8989H456.562C459.205 -18.0729 505.577 61.0646 575.852 102.907C602.073 118.553 625.209 124.779 646.449 121.929C669.625 118.796 694.213 100.259 695.242 74.6686C695.308 68.9089 694.692 63.1616 693.406 57.5475C679.977 -6.86461 641.83 -63.4094 587.188 -99.8989H590.798C644.567 -63.0279 682.027 -6.74981 695.343 57.1634Z" fill="#342F2C"/>
<path d="M585.816 -61.7755C599.27 -49.2024 613.188 -36.225 623.858 -20.7209C632.249 -8.59254 642.011 10.5096 641.063 32.1183C641.07 37.8571 639.552 43.4943 636.666 48.4512C632.067 55.6878 622.97 60.0742 612.986 60.0742C611.997 60.0742 610.969 60.0742 609.98 59.9529C599.552 59.023 590.173 53.9898 582.367 49.1789C556.574 33.0645 534.796 11.2561 518.698 -14.581C502.6 -40.418 492.606 -69.6002 489.481 -99.8989H491.498C497.549 -40.6114 532.787 16.2706 583.396 47.4607C591 52.1503 600.137 57.0623 610.142 57.9315C620.53 58.8613 630.312 54.6973 634.952 47.3596C637.622 42.6983 639.013 37.412 638.986 32.0374C639.954 10.9745 630.353 -7.66274 622.143 -19.5688C611.594 -34.8909 597.757 -47.8683 584.384 -60.2998L542.026 -99.8989H544.991L585.816 -61.7755Z" fill="#342F2C"/>
<path d="M551.707 -50.6982C578.978 -55.2261 593.925 -11.8066 597.394 5.29443C597.724 6.26377 597.812 7.29946 597.651 8.31084C597.489 9.32223 597.082 10.2785 596.466 11.0958C595.879 11.5882 595.201 11.9595 594.471 12.1884C593.741 12.4174 592.972 12.4995 592.21 12.4299H592.029C582.084 12.4299 571.555 7.90202 562.378 -0.082489C552.292 -8.87555 534.018 -28.7661 537.487 -41.0966C538.919 -46.1299 543.7 -49.3641 551.707 -50.6982ZM563.81 -1.59853C572.624 6.06255 582.69 10.3277 592.049 10.4085C593.103 10.5643 594.177 10.2954 595.034 9.66064C595.901 8.79144 595.7 7.09348 595.417 5.61786C592.271 -9.84581 577.586 -53.0026 552.05 -48.7779C544.87 -47.5852 540.634 -44.8564 539.444 -40.6923C536.116 -28.7661 555.822 -8.45106 563.709 -1.59853H563.81Z" fill="#342F2C"/>
<path d="M375.376 152.553C383.444 141.799 392.42 130.924 404.623 124.253C412.911 120.008 421.885 117.27 431.127 116.168C464.046 111.236 494.887 118.856 515.703 137.089C521.754 142.345 525.284 147.196 526.918 152.553C528.733 158.354 528.067 166.258 522.541 170.907C520.193 172.675 517.569 174.042 514.775 174.95C479.638 188.433 444.642 203.573 410.795 219.987L410.029 220.371C401.033 224.737 391.714 229.245 381.669 230.72C379.885 230.977 378.085 231.106 376.283 231.104C371.89 231.196 367.524 230.393 363.449 228.742C359.375 227.092 355.678 224.629 352.583 221.503C349.643 218.281 347.551 214.377 346.494 210.142C345.438 205.907 345.451 201.475 346.532 197.246C349.114 185.259 359.259 172.706 368.215 161.609C370.837 158.415 373.197 155.363 375.376 152.553ZM354.055 220.108C360.389 226.9 370.857 230.215 381.386 228.658C391.109 227.223 400.286 222.776 409.141 218.551L409.908 218.167C443.815 201.733 478.851 186.553 514.049 173.07C516.632 172.243 519.064 171.001 521.25 169.391C525.284 165.935 526.898 159.284 525.002 153.22C523.469 148.288 520.08 143.679 514.372 138.666C498.074 124.395 475.483 116.774 450.552 116.774C444.151 116.785 437.759 117.271 431.43 118.23C422.419 119.316 413.671 121.992 405.591 126.133C393.731 132.602 384.836 143.275 376.989 153.867C374.972 156.697 372.431 159.769 369.809 163.004C360.994 173.919 351.01 186.27 348.529 197.792C347.536 201.679 347.521 205.753 348.486 209.648C349.45 213.542 351.364 217.137 354.055 220.108Z" fill="#342F2C"/>
<path d="M405.712 150.754C414.245 144.447 430.623 140.788 442.221 140.041C447.148 139.498 452.129 140.294 456.643 142.345C458.968 143.472 460.914 145.254 462.244 147.473C463.573 149.692 464.227 152.251 464.127 154.837C463.729 157.548 462.615 160.102 460.899 162.235C453.92 171.857 442.524 176.971 431.47 181.378C426.247 183.739 420.632 185.11 414.91 185.421C412.313 185.447 409.739 184.938 407.346 183.925C404.589 182.768 402.196 180.885 400.421 178.476C398.645 176.067 397.553 173.221 397.261 170.24C396.91 166.541 397.502 162.813 398.98 159.405C400.458 155.997 402.774 153.021 405.712 150.754ZM399.278 170.099C399.5 172.743 400.446 175.275 402.012 177.415C403.578 179.555 405.703 181.22 408.153 182.227C415.213 185.279 423.503 182.47 430.724 179.579C441.515 175.273 452.609 170.301 459.265 161.124C460.778 159.277 461.767 157.057 462.13 154.696C462.191 152.512 461.615 150.358 460.471 148.498C459.328 146.638 457.668 145.153 455.695 144.225C452.437 142.649 448.841 141.906 445.227 142.062C444.319 142.062 443.351 142.062 442.342 142.062C432.902 142.668 415.677 145.903 406.922 152.371C404.245 154.431 402.137 157.143 400.799 160.249C399.461 163.356 398.937 166.753 399.278 170.119V170.099Z" fill="#342F2C"/>
<path d="M384.15 -21.2262C391.976 4.76888 392.359 25.4477 385.32 41.9827C381.286 51.3822 375.012 59.3667 368.76 66.583C364.477 71.7616 359.752 76.5569 354.64 80.9148C351.433 83.5224 347.964 85.847 344.555 88.1109C342.195 89.7078 339.774 91.3452 337.475 93.0431C314.359 110.205 299.796 137.049 287.956 160.841L287.432 161.912C284.225 168.914 280.362 175.594 275.894 181.863C270.574 188.686 263.937 194.365 256.379 198.561C248.82 202.756 240.495 205.382 231.902 206.282C229.731 206.507 227.549 206.622 225.366 206.625C210.197 206.55 195.472 201.487 183.452 192.213C178.848 188.737 174.812 184.563 171.491 179.842C167.348 173.431 164.415 166.312 162.838 158.839C159.738 145.565 159.304 131.805 161.562 118.361C163.82 104.917 168.724 92.0572 175.989 80.5307C179.236 75.4368 182.948 70.5854 186.538 65.8756C189.281 62.3179 192.105 58.639 194.606 54.8792C210.379 31.8136 218.47 4.34039 217.722 -23.6115C216.856 -51.2437 207.4 -77.9147 190.673 -99.8989H193.194C209.64 -77.8108 218.926 -51.1973 219.799 -23.6519C220.555 4.72929 212.345 32.6245 196.341 56.0516C193.719 59.8518 190.895 63.551 188.152 67.1289C184.581 71.7983 180.89 76.6092 177.703 81.6424C163.438 104.53 158.797 132.148 164.794 158.455C166.312 165.651 169.143 172.504 173.145 178.669C176.334 183.227 180.221 187.252 184.662 190.596C198.046 200.947 214.847 205.829 231.68 204.26C240.011 203.398 248.084 200.862 255.417 196.806C262.75 192.75 269.193 187.255 274.361 180.65C278.734 174.475 282.523 167.904 285.677 161.023L286.221 159.951C298.142 135.937 312.846 108.85 336.325 91.426C338.665 89.6876 341.126 88.03 343.486 86.4331C346.794 84.2096 350.203 81.885 353.349 79.3381C358.403 75.0361 363.073 70.3017 367.307 65.1883C373.459 58.073 379.672 50.2502 383.545 41.1135C390.403 24.9424 389.979 4.72845 382.294 -20.7209C373.631 -49.3239 359.972 -76.1594 341.953 -99.9798H344.494C362.177 -76.2364 375.597 -49.5866 384.15 -21.2262Z" fill="#342F2C"/>
<path d="M317.345 -99.8989H319.987C332.636 -84.9425 342.23 -67.6421 348.226 -48.98C355.81 -24.4605 355.427 1.13031 347.157 23.0624C338.887 44.9946 322.952 63.0457 307.683 80.4701C294.693 95.206 281.28 110.468 272.465 128.094C271.194 130.641 270.004 133.289 268.834 135.856C266.604 141.113 263.995 146.2 261.028 151.077C255.542 159.587 248.361 165.227 240.858 166.905C239.155 167.282 237.417 167.471 235.674 167.471C223.571 167.471 212.78 158.233 208.141 148.227C203.34 137.878 202.594 125.022 205.862 108.911C209.411 91.5068 216.25 74.7292 222.845 58.4975C230.389 39.9411 238.215 20.7581 240.999 0.726059C243.984 -20.6603 241.18 -42.3903 238.054 -60.8052C235.755 -74.2677 232.749 -87.8918 227.142 -99.8989H229.36C234.806 -87.9121 237.771 -74.4495 240.051 -61.1488C243.197 -42.5722 246.102 -20.7209 242.996 1.00908C240.152 21.223 232.285 40.5879 224.701 59.2656C218.125 75.4368 211.328 92.0931 207.818 109.315C204.631 124.981 205.337 137.433 209.956 147.378C214.918 158.071 227.283 167.855 240.414 164.924C247.433 163.347 254.17 158.031 259.374 149.966C262.291 145.181 264.852 140.188 267.039 135.027C268.209 132.44 269.419 129.772 270.71 127.184C279.626 109.315 293.14 93.9729 306.21 79.1157C321.439 61.853 337.172 43.9839 345.321 22.3348C353.47 0.685631 353.793 -24.2988 346.35 -48.414C340.212 -67.3457 330.349 -84.8522 317.345 -99.8989Z" fill="#342F2C"/>
<path d="M282.167 -99.8989H284.87C298.185 -84.38 307.144 -65.5932 310.83 -45.4628C314.864 -24.7435 314.057 -2.14429 308.591 21.7284C307.078 28.3383 304.718 35.494 298.505 38.5868C296.752 39.4635 294.817 39.9137 292.858 39.9007C289.838 39.7443 286.898 38.8732 284.279 37.3589C281.66 35.8445 279.437 33.73 277.79 31.1885C273.494 24.6392 272.667 16.7153 271.739 8.95314C268.713 -19.6092 264.72 -48.4544 259.919 -76.7539C258.386 -85.6885 256.712 -93.6528 252.214 -100H254.695C258.729 -93.5315 260.423 -85.7492 261.896 -77.0976C266.716 -48.7981 270.71 -19.8719 273.756 8.75099C274.543 16.1695 275.349 23.8306 279.363 29.9756C283.115 35.6962 291.123 39.9007 297.517 36.6867C302.943 33.9578 305.101 27.3276 306.513 21.1825C311.899 -2.42733 312.564 -24.7435 308.732 -45.1798C305.039 -65.5117 295.851 -84.4385 282.167 -99.8989Z" fill="#342F2C"/>
<path d="M124.473 -99.8989H127.357C143.51 -83.2415 152.901 -61.1567 153.7 -37.9432C154.689 -12.3726 145.975 14.8758 129.132 38.7282C126.167 42.9529 122.94 47.0968 119.814 51.079C115.396 56.7389 110.838 62.5807 106.965 68.7055C99.1992 80.9956 93.1681 95.9741 87.9843 115.824C81.2473 141.658 69.6693 205.958 107.812 244.91C128.144 265.69 157.371 274.059 185.893 282.145C205.216 287.663 215.221 296.092 215.665 307.19C215.967 314.952 210.824 322.815 202.554 327.242C195.474 331.002 187.325 332.032 178.873 332.841C162.078 334.418 145.975 335.213 130.565 335.226C78.8269 335.226 35.2179 326.191 0.100708 308.301V306.098C45.4242 329.465 105.25 337.773 178.692 330.82C187.224 330.011 194.828 329.041 201.606 325.443C209.21 321.4 213.93 314.264 213.708 307.25C213.305 297.143 203.784 289.32 185.288 284.024C156.706 275.939 127.135 267.429 106.42 246.265C67.5717 206.565 79.2705 141.415 86.0883 115.258C91.3326 95.1858 97.4443 80.0456 105.311 67.5736C109.345 61.3477 113.843 55.4452 118.281 49.7853C121.387 45.7425 124.614 41.6997 127.559 37.5154C144.119 14.0066 152.712 -12.7971 151.764 -37.9432C150.735 -61.8563 140.549 -84.698 124.473 -99.8989Z" fill="#342F2C"/>
<path d="M87.9237 -99.8989H90.8081C108.235 -83.2426 115.981 -57.4496 115.678 -35.3962C115.255 -3.78164 101.559 26.4786 88.8918 52.3525C87.5001 55.1824 86.1083 57.9922 84.6963 60.8221C72.5939 85.2203 60.0681 110.427 55.4288 137.453C49.2566 173.434 56.6995 214.165 78.161 261.951C80.4403 267.045 83.0222 272.826 81.8322 278.688C79.8151 288.168 69.4675 292.474 58.656 292.474C56.2898 292.474 53.928 292.272 51.5963 291.867C31.8695 288.451 14.6842 278.567 -0.00012207 266.176V263.527C14.7446 276.242 32.0309 286.43 51.9393 289.806C63.9207 291.827 77.7778 288.532 79.8756 278.223C80.9244 273.008 78.4838 267.55 76.3054 262.719C54.6825 214.549 47.1992 173.434 53.4319 137.049C58.1317 109.74 70.7181 84.3916 82.9012 59.8721C84.293 57.0421 85.7048 54.2121 87.0967 51.4024C99.7234 25.7105 113.319 -4.28699 113.661 -35.5175C114.065 -57.7124 106.037 -83.7278 87.9237 -99.8989Z" fill="#342F2C"/>
<path d="M25.3342 -99.8989H28.8439C51.4753 -83.3841 63.6584 -54.0537 65.8168 -28.5033C68.7616 6.10298 58.0914 40.6486 48.6919 71.1312C38.8082 103.13 28.5212 136.24 31.0426 169.917C31.1837 171.938 31.3654 173.838 31.567 175.799C32.4849 182.57 32.5458 189.429 31.7485 196.215C30.4575 204.301 25.6974 213.943 16.4391 217.076C14.5581 217.727 12.5793 218.048 10.5895 218.026C6.9198 218 3.30713 217.114 0.0402832 215.439V213.175C2.37378 214.582 4.97351 215.489 7.6748 215.837C10.3762 216.184 13.1201 215.966 15.733 215.196C24.2047 212.346 28.5615 203.068 29.7112 195.912C30.4744 189.299 30.3998 182.616 29.4894 176.021C29.3079 174 29.1263 171.979 28.965 170.099C26.4839 136.018 36.771 102.726 46.6951 70.545C56.0542 40.2241 66.6438 5.86043 63.7393 -28.3011C61.6012 -54.2558 48.9338 -84.1321 25.3342 -99.8989Z" fill="#342F2C"/>
<path d="M0.0402832 -37.8421V-42.2488C8.75403 -26.0776 14.8253 -6.69244 18.1938 15.7248C21.9053 40.6688 23.8417 84.7958 0.0402832 117.886V114.369C21.7036 82.0265 19.7672 40.0422 16.1768 16.0078C13.6733 -2.68438 8.22681 -20.8602 0.0402832 -37.8421Z" fill="#342F2C"/>
<path d="M374.569 864.185C377.675 827.678 379.975 784.643 373.742 742.335C362.487 666.048 325.211 597.482 289.146 531.18C279.222 512.988 267.987 492.248 251.084 477.896C228.896 459.097 199.104 452.245 172.762 446.201C126.712 435.629 74.5103 423.642 24.9913 434.618C18.4158 436.074 11.8199 437.953 5.44604 439.753L0.100708 441.269V439.247L4.88123 437.893C11.2954 436.074 17.9316 434.194 24.5476 432.718C74.5103 421.661 126.954 433.688 173.205 444.321C199.79 450.385 229.905 457.318 252.395 476.441C269.581 491.035 280.917 511.896 290.921 530.291C327.067 596.754 364.443 665.461 375.638 742.113C381.911 784.562 379.672 827.799 376.485 864.427C375.154 880.053 373.379 896.062 368.78 910.919H366.763C371.442 895.981 373.197 879.871 374.569 864.185Z" fill="#342F2C"/>
<path d="M307.844 632.169C282.006 564.452 250.842 523.701 209.815 503.952C189.422 494.128 166.529 489.802 144.845 486.77C106.198 481.211 51.8182 476.239 0.100708 490.348V488.327C51.9998 474.298 106.42 479.291 145.128 484.85C166.993 487.983 190.048 492.268 210.703 502.214C265.163 528.492 293.402 588.588 309.72 631.583C337.072 703.262 362.87 808.01 337.072 910.94H335.055C360.853 808.212 335.135 703.686 307.844 632.169Z" fill="#342F2C"/>
<path d="M305.101 790.424C299.159 750.873 288.472 712.187 273.272 675.205C246.243 609.61 209.412 567.161 163.765 548.969C143.09 540.883 120.56 537.81 99.2194 535.445C67.7935 531.989 32.7974 529.381 0.0805664 537.164V535.142C32.9587 527.38 67.9751 530.028 99.4413 533.505C120.883 535.87 143.575 538.862 164.492 547.149C210.662 565.342 247.877 608.216 275.107 674.497C290.382 711.625 301.117 750.469 307.078 790.181C314.42 839.079 311.576 878.84 298.425 910.859H296.246C309.559 878.981 312.443 839.342 305.101 790.424Z" fill="#342F2C"/>
<path d="M216.532 899.862C209.129 894.627 200.395 891.251 192.085 887.976C188.696 886.663 185.187 885.308 181.798 883.832C150.876 870.17 125.695 846.101 110.616 815.792C106.239 806.447 102.367 796.872 99.0177 787.109C95.8105 778.296 92.5227 769.199 88.4685 760.629C82.9185 749.498 76.7291 738.699 69.9316 728.286C57.688 708.739 45.041 688.546 41.8741 665.441C40.9758 657.315 40.6792 649.133 40.9867 640.962C40.9867 635.08 41.1481 628.995 40.7446 623.073C39.958 611.308 36.5289 595.339 24.7896 586.081C17.6425 580.82 8.89575 578.205 0.0402832 578.683V576.662C9.34253 576.23 18.5073 579.037 25.9797 584.606C38.304 594.329 41.8741 610.884 42.7012 623.012C43.1045 629.076 43.0238 635.141 42.9431 641.083C42.6381 649.146 42.928 657.22 43.8107 665.239C46.9169 687.919 59.463 707.931 71.5856 727.276C78.4242 737.744 84.6473 748.604 90.2233 759.8C94.2574 768.451 97.646 777.608 100.853 786.462C104.181 796.155 108.026 805.663 112.371 814.943C127.247 844.794 152.071 868.491 182.544 881.932C185.893 883.388 189.382 884.742 192.751 885.975C201.242 889.29 210.037 892.727 217.641 898.104C222.444 901.484 226.553 905.76 229.744 910.697H227.364C224.41 906.481 220.745 902.814 216.532 899.862Z" fill="#342F2C"/>
<path d="M130.302 895.456C126.712 893.01 122.96 890.604 119.329 888.3C107.61 880.8 95.5079 873.059 86.5118 862.183C74.6313 847.832 69.3264 829.518 64.2031 811.81C61.9844 804.149 59.6849 796.225 56.9014 788.746C51.658 775.66 45.553 762.938 38.6267 750.663C27.9968 730.813 17.024 710.235 13.9177 687.656C13.6555 685.756 13.4336 683.816 13.2318 681.875C12.3846 674.113 11.4972 666.048 7.18066 659.64C5.35046 656.956 2.93665 654.724 0.120972 653.111V650.867C3.6084 652.648 6.60193 655.266 8.83472 658.488C13.4739 665.239 14.3816 673.527 15.2489 681.572C15.4507 683.593 15.6726 685.392 15.9348 687.292C18.9806 709.528 29.8928 729.903 40.4219 749.592C47.396 761.968 53.5349 774.799 58.7974 787.998C61.6213 795.558 63.9208 803.502 66.1598 811.204C71.2225 828.709 76.4669 846.821 88.0852 860.849C96.8796 871.482 108.861 879.143 120.358 886.541C123.989 888.866 127.761 891.271 131.371 893.737C138.677 898.605 145.375 904.333 151.32 910.798H148.597C143.064 905.043 136.93 899.9 130.302 895.456Z" fill="#342F2C"/>
<path d="M36.3474 836.411C26.6252 811.345 16.6407 785.674 0.0402832 766.026V762.994C17.7703 783.066 28.1582 809.708 38.2233 835.764C48.7524 862.871 59.5841 890.725 78.7664 910.879H76.0029C57.4258 890.584 46.7756 863.093 36.3474 836.411Z" fill="#342F2C"/>
<path d="M0.0402832 849.651C8.09387 859.018 15.0386 869.287 20.7354 880.255L22.3086 883.105C27.3112 892.691 32.9305 901.942 39.131 910.798H36.6499C30.7483 902.225 25.36 893.308 20.5134 884.095L18.9402 881.225C13.6367 871.085 7.30322 861.52 0.0402832 852.683V849.651Z" fill="#342F2C"/>
<path d="M152.228 658.932C162.011 656.102 175.727 667.907 183.916 674.962L185.933 676.66C218.482 704.259 239.703 742.941 245.517 785.269C246.062 789.514 246.465 794.406 244.408 798.611C243.007 801.115 240.953 803.19 238.466 804.615C235.979 806.039 233.152 806.758 230.288 806.696C229.905 806.716 229.521 806.716 229.139 806.696C223.188 806.039 217.61 803.464 213.244 799.359C200.194 788.059 195.09 771.059 189.947 754.888C186.478 743.629 182.907 732.006 176.816 722.161C172.986 716.798 168.598 711.858 163.725 707.426C152.288 696.045 139.298 683.169 143.554 669.504C145.269 663.602 148.174 660.145 152.228 658.932ZM165.036 705.829C170.012 710.376 174.495 715.437 178.409 720.928C184.642 731.035 188.253 742.76 191.762 754.12C196.946 770.938 201.848 786.826 214.454 797.741C218.492 801.555 223.648 803.965 229.159 804.614C231.818 804.874 234.496 804.36 236.871 803.134C239.247 801.908 241.219 800.022 242.552 797.701C244.367 794.002 243.984 789.494 243.48 785.573C237.735 743.741 216.765 705.514 184.602 678.237L182.585 676.539C175.464 670.474 164.008 660.549 155.415 660.549C154.515 660.546 153.619 660.668 152.752 660.913C149.404 661.863 146.903 664.956 145.329 669.989C141.457 682.38 153.983 694.852 165.036 705.829Z" fill="#342F2C"/>
</g>
</svg>
